M48
; DRILL file {KiCad 8.0.9-8.0.9-0~ubuntu20.04.1} date 2025-08-03T23:00:52+0200
; FORMAT={-:-/ absolute / inch / decimal}
; #@! TF.CreationDate,2025-08-03T23:00:52+02:00
; #@! TF.GenerationSoftware,Kicad,Pcbnew,8.0.9-8.0.9-0~ubuntu20.04.1
; #@! TF.FileFunction,Plated,1,2,PTH
FMAT,2
INCH
; #@! TA.AperFunction,Plated,PTH,ViaDrill
T1C0.0157
; #@! TA.AperFunction,Plated,PTH,ComponentDrill
T2C0.0374
; #@! TA.AperFunction,Plated,PTH,ComponentDrill
T3C0.0394
; #@! TA.AperFunction,Plated,PTH,ComponentDrill
T4C0.0400
; #@! TA.AperFunction,Plated,PTH,ComponentDrill
T5C0.0669
; #@! TA.AperFunction,Plated,PTH,ComponentDrill
T6C0.1083
%
G90
G05
T1
X5.7Y-3.35
X6.075Y-1.6
T2
X4.3504Y-2.9724
X4.3504Y-3.0709
X4.3504Y-3.1693
X4.3504Y-3.2677
X4.3514Y-2.5197
X4.3514Y-2.6181
X4.3514Y-2.7165
X4.3524Y-1.6142
X4.3524Y-1.7126
X4.3524Y-1.811
X4.3524Y-2.0669
X4.3524Y-2.1654
X4.3524Y-2.2638
X4.5787Y-1.3071
X4.6772Y-1.3071
X4.7756Y-1.3071
X4.874Y-1.3071
X5.96Y-1.8047
X5.96Y-1.9031
X5.96Y-2.0016
X5.96Y-2.1
X5.96Y-2.1984
X5.9646Y-2.6181
X5.9646Y-2.7165
X5.9646Y-2.815
X5.9646Y-3.0709
X5.9646Y-3.1693
X5.9646Y-3.2677
X5.9646Y-3.3661
T3
X4.5691Y-1.706
X4.5691Y-3.5914
X5.46Y-1.706
X5.46Y-3.5924
X5.65Y-2.3
X5.65Y-2.4
X5.65Y-2.5
X5.75Y-2.4
X5.85Y-2.4
X5.9Y-3.6
X6.0Y-3.6
T4
X6.2Y-1.4483
X6.2Y-1.5483
X6.2Y-1.6483
X6.2Y-1.7483
X6.2Y-1.8483
X6.2Y-1.9483
X6.2Y-2.0483
X6.2Y-2.1483
X6.2Y-2.2483
X6.2Y-2.3483
X6.2Y-2.4483
X6.2Y-2.5483
X6.2Y-2.6483
X6.2Y-2.7483
X6.2Y-2.8483
X6.2Y-2.9483
X6.2Y-3.0483
X6.2Y-3.1483
X6.2Y-3.2483
X6.2Y-3.3483
X6.3Y-1.4483
X6.3Y-1.5483
X6.3Y-1.6483
X6.3Y-1.7483
X6.3Y-1.8483
X6.3Y-1.9483
X6.3Y-2.0483
X6.3Y-2.1483
X6.3Y-2.2483
X6.3Y-2.3483
X6.3Y-2.4483
X6.3Y-2.5483
X6.3Y-2.6483
X6.3Y-2.7483
X6.3Y-2.8483
X6.3Y-2.9483
X6.3Y-3.0483
X6.3Y-3.1483
X6.3Y-3.2483
X6.3Y-3.3483
T5
X5.16Y-1.5093
X5.36Y-1.5093
T6
X4.3209Y-1.2565
X4.3209Y-3.54
X6.25Y-1.2565
X6.25Y-3.54
M30
