%TF.GenerationSoftware,KiCad,Pcbnew,8.0.9-8.0.9-0~ubuntu20.04.1*%
%TF.CreationDate,2025-08-03T23:00:46+02:00*%
%TF.ProjectId,CDFR,43444652-2e6b-4696-9361-645f70636258,rev?*%
%TF.SameCoordinates,Original*%
%TF.FileFunction,Soldermask,Bot*%
%TF.FilePolarity,Negative*%
%FSLAX46Y46*%
G04 Gerber Fmt 4.6, Leading zero omitted, Abs format (unit mm)*
G04 Created by KiCad (PCBNEW 8.0.9-8.0.9-0~ubuntu20.04.1) date 2025-08-03 23:00:46*
%MOMM*%
%LPD*%
G01*
G04 APERTURE LIST*
G04 Aperture macros list*
%AMRoundRect*
0 Rectangle with rounded corners*
0 $1 Rounding radius*
0 $2 $3 $4 $5 $6 $7 $8 $9 X,Y pos of 4 corners*
0 Add a 4 corners polygon primitive as box body*
4,1,4,$2,$3,$4,$5,$6,$7,$8,$9,$2,$3,0*
0 Add four circle primitives for the rounded corners*
1,1,$1+$1,$2,$3*
1,1,$1+$1,$4,$5*
1,1,$1+$1,$6,$7*
1,1,$1+$1,$8,$9*
0 Add four rect primitives between the rounded corners*
20,1,$1+$1,$2,$3,$4,$5,0*
20,1,$1+$1,$4,$5,$6,$7,0*
20,1,$1+$1,$6,$7,$8,$9,0*
20,1,$1+$1,$8,$9,$2,$3,0*%
G04 Aperture macros list end*
%ADD10R,2.540000X2.540000*%
%ADD11C,2.540000*%
%ADD12R,1.700000X1.700000*%
%ADD13C,1.700000*%
%ADD14RoundRect,0.250000X0.600000X0.725000X-0.600000X0.725000X-0.600000X-0.725000X0.600000X-0.725000X0*%
%ADD15O,1.700000X1.950000*%
%ADD16RoundRect,0.250000X-0.725000X0.600000X-0.725000X-0.600000X0.725000X-0.600000X0.725000X0.600000X0*%
%ADD17O,1.950000X1.700000*%
%ADD18RoundRect,0.250000X0.725000X-0.600000X0.725000X0.600000X-0.725000X0.600000X-0.725000X-0.600000X0*%
%ADD19O,1.700000X1.700000*%
%ADD20R,2.550000X2.550000*%
%ADD21C,2.550000*%
%ADD22C,6.404000*%
%ADD23C,1.728000*%
%ADD24RoundRect,0.102000X-0.762000X0.762000X-0.762000X-0.762000X0.762000X-0.762000X0.762000X0.762000X0*%
G04 APERTURE END LIST*
D10*
%TO.C,U2*%
X138684000Y-43332400D03*
D11*
X116054000Y-43332400D03*
X116054000Y-91222400D03*
X138684000Y-91247400D03*
%TD*%
D12*
%TO.C,JP1*%
X143510000Y-58420000D03*
D13*
X143510000Y-60960000D03*
X143510000Y-63500000D03*
X146050000Y-60960000D03*
X148590000Y-60960000D03*
%TD*%
D14*
%TO.C,J5_I2C1*%
X123800000Y-33200000D03*
D15*
X121300000Y-33200000D03*
X118800000Y-33200000D03*
X116300000Y-33200000D03*
%TD*%
D16*
%TO.C,J2_I2C1*%
X110550000Y-52500000D03*
D17*
X110550000Y-55000000D03*
X110550000Y-57500000D03*
%TD*%
D18*
%TO.C,J8_UART0*%
X151384000Y-55840000D03*
D17*
X151384000Y-53340000D03*
X151384000Y-50840000D03*
X151384000Y-48340000D03*
X151384000Y-45840000D03*
%TD*%
D18*
%TO.C,J4_I2C1*%
X151500000Y-71500000D03*
D17*
X151500000Y-69000000D03*
X151500000Y-66500000D03*
%TD*%
D16*
%TO.C,J1_I2C1*%
X110550000Y-41000000D03*
D17*
X110550000Y-43500000D03*
X110550000Y-46000000D03*
%TD*%
D16*
%TO.C,J3_I2C1*%
X110525000Y-64000000D03*
D17*
X110525000Y-66500000D03*
X110525000Y-69000000D03*
%TD*%
D12*
%TO.C,J6*%
X149860000Y-91440000D03*
D19*
X152400000Y-91440000D03*
%TD*%
D20*
%TO.C,J7*%
X131064000Y-38335500D03*
D21*
X136144000Y-38335500D03*
%TD*%
D22*
%TO.C,U1*%
X109750000Y-31916000D03*
X109750000Y-89916000D03*
X158750000Y-89916000D03*
X158750000Y-31916000D03*
D23*
X160020000Y-85046000D03*
X157480000Y-85046000D03*
X160020000Y-82506000D03*
X157480000Y-82506000D03*
X160020000Y-79966000D03*
X157480000Y-79966000D03*
X160020000Y-77426000D03*
X157480000Y-77426000D03*
X160020000Y-74886000D03*
X157480000Y-74886000D03*
X160020000Y-72346000D03*
X157480000Y-72346000D03*
X160020000Y-69806000D03*
X157480000Y-69806000D03*
X160020000Y-67266000D03*
X157480000Y-67266000D03*
X160020000Y-64726000D03*
X157480000Y-64726000D03*
X160020000Y-62186000D03*
X157480000Y-62186000D03*
X160020000Y-59646000D03*
X157480000Y-59646000D03*
X160020000Y-57106000D03*
X157480000Y-57106000D03*
X160020000Y-54566000D03*
X157480000Y-54566000D03*
X160020000Y-52026000D03*
X157480000Y-52026000D03*
X160020000Y-49486000D03*
X157480000Y-49486000D03*
X160020000Y-46946000D03*
X157480000Y-46946000D03*
X160020000Y-44406000D03*
X157480000Y-44406000D03*
X160020000Y-41866000D03*
X157480000Y-41866000D03*
X160020000Y-39326000D03*
X157480000Y-39326000D03*
X160020000Y-36786000D03*
D24*
X157480000Y-36786000D03*
%TD*%
D18*
%TO.C,J9_I2C1*%
X151500000Y-85500000D03*
D17*
X151500000Y-83000000D03*
X151500000Y-80500000D03*
X151500000Y-78000000D03*
%TD*%
D16*
%TO.C,J10_I2C1*%
X110500000Y-75500000D03*
D17*
X110500000Y-78000000D03*
X110500000Y-80500000D03*
X110500000Y-83000000D03*
%TD*%
M02*
