%TF.GenerationSoftware,KiCad,Pcbnew,8.0.9-8.0.9-0~ubuntu20.04.1*%
%TF.CreationDate,2025-08-03T23:00:45+02:00*%
%TF.ProjectId,CDFR,43444652-2e6b-4696-9361-645f70636258,rev?*%
%TF.SameCoordinates,Original*%
%TF.FileFunction,Copper,L1,Top*%
%TF.FilePolarity,Positive*%
%FSLAX46Y46*%
G04 Gerber Fmt 4.6, Leading zero omitted, Abs format (unit mm)*
G04 Created by KiCad (PCBNEW 8.0.9-8.0.9-0~ubuntu20.04.1) date 2025-08-03 23:00:45*
%MOMM*%
%LPD*%
G01*
G04 APERTURE LIST*
G04 Aperture macros list*
%AMRoundRect*
0 Rectangle with rounded corners*
0 $1 Rounding radius*
0 $2 $3 $4 $5 $6 $7 $8 $9 X,Y pos of 4 corners*
0 Add a 4 corners polygon primitive as box body*
4,1,4,$2,$3,$4,$5,$6,$7,$8,$9,$2,$3,0*
0 Add four circle primitives for the rounded corners*
1,1,$1+$1,$2,$3*
1,1,$1+$1,$4,$5*
1,1,$1+$1,$6,$7*
1,1,$1+$1,$8,$9*
0 Add four rect primitives between the rounded corners*
20,1,$1+$1,$2,$3,$4,$5,0*
20,1,$1+$1,$4,$5,$6,$7,0*
20,1,$1+$1,$6,$7,$8,$9,0*
20,1,$1+$1,$8,$9,$2,$3,0*%
G04 Aperture macros list end*
%TA.AperFunction,ComponentPad*%
%ADD10R,2.540000X2.540000*%
%TD*%
%TA.AperFunction,ComponentPad*%
%ADD11C,2.540000*%
%TD*%
%TA.AperFunction,SMDPad,CuDef*%
%ADD12RoundRect,0.237500X-0.250000X-0.237500X0.250000X-0.237500X0.250000X0.237500X-0.250000X0.237500X0*%
%TD*%
%TA.AperFunction,SMDPad,CuDef*%
%ADD13RoundRect,0.237500X-0.237500X0.250000X-0.237500X-0.250000X0.237500X-0.250000X0.237500X0.250000X0*%
%TD*%
%TA.AperFunction,SMDPad,CuDef*%
%ADD14RoundRect,0.250000X-0.350000X0.850000X-0.350000X-0.850000X0.350000X-0.850000X0.350000X0.850000X0*%
%TD*%
%TA.AperFunction,SMDPad,CuDef*%
%ADD15RoundRect,0.250000X-1.125000X1.275000X-1.125000X-1.275000X1.125000X-1.275000X1.125000X1.275000X0*%
%TD*%
%TA.AperFunction,SMDPad,CuDef*%
%ADD16RoundRect,0.249997X-2.650003X2.950003X-2.650003X-2.950003X2.650003X-2.950003X2.650003X2.950003X0*%
%TD*%
%TA.AperFunction,SMDPad,CuDef*%
%ADD17RoundRect,0.225000X0.225000X0.375000X-0.225000X0.375000X-0.225000X-0.375000X0.225000X-0.375000X0*%
%TD*%
%TA.AperFunction,SMDPad,CuDef*%
%ADD18RoundRect,0.237500X0.237500X-0.250000X0.237500X0.250000X-0.237500X0.250000X-0.237500X-0.250000X0*%
%TD*%
%TA.AperFunction,ComponentPad*%
%ADD19R,1.700000X1.700000*%
%TD*%
%TA.AperFunction,ComponentPad*%
%ADD20C,1.700000*%
%TD*%
%TA.AperFunction,ComponentPad*%
%ADD21RoundRect,0.250000X0.600000X0.725000X-0.600000X0.725000X-0.600000X-0.725000X0.600000X-0.725000X0*%
%TD*%
%TA.AperFunction,ComponentPad*%
%ADD22O,1.700000X1.950000*%
%TD*%
%TA.AperFunction,SMDPad,CuDef*%
%ADD23R,3.810000X4.240000*%
%TD*%
%TA.AperFunction,ComponentPad*%
%ADD24RoundRect,0.250000X-0.725000X0.600000X-0.725000X-0.600000X0.725000X-0.600000X0.725000X0.600000X0*%
%TD*%
%TA.AperFunction,ComponentPad*%
%ADD25O,1.950000X1.700000*%
%TD*%
%TA.AperFunction,ComponentPad*%
%ADD26RoundRect,0.250000X0.725000X-0.600000X0.725000X0.600000X-0.725000X0.600000X-0.725000X-0.600000X0*%
%TD*%
%TA.AperFunction,ComponentPad*%
%ADD27O,1.700000X1.700000*%
%TD*%
%TA.AperFunction,ComponentPad*%
%ADD28R,2.550000X2.550000*%
%TD*%
%TA.AperFunction,ComponentPad*%
%ADD29C,2.550000*%
%TD*%
%TA.AperFunction,ComponentPad*%
%ADD30C,6.200000*%
%TD*%
%TA.AperFunction,ComponentPad*%
%ADD31C,1.524000*%
%TD*%
%TA.AperFunction,ComponentPad*%
%ADD32R,1.524000X1.524000*%
%TD*%
%TA.AperFunction,ViaPad*%
%ADD33C,0.800000*%
%TD*%
%TA.AperFunction,Conductor*%
%ADD34C,0.250000*%
%TD*%
%TA.AperFunction,Conductor*%
%ADD35C,1.000000*%
%TD*%
%TA.AperFunction,Conductor*%
%ADD36C,0.500000*%
%TD*%
G04 APERTURE END LIST*
D10*
%TO.P,U2,1,Vin*%
%TO.N,Net-(U2-Vin)*%
X138684000Y-43332400D03*
D11*
%TO.P,U2,2,GND*%
%TO.N,GND*%
X116054000Y-43332400D03*
%TO.P,U2,3,GND*%
X116054000Y-91222400D03*
%TO.P,U2,4,Vout*%
%TO.N,+5V*%
X138684000Y-91247400D03*
%TD*%
D12*
%TO.P,R3,1*%
%TO.N,GND*%
X152781000Y-61468000D03*
%TO.P,R3,2*%
%TO.N,MotorControl*%
X154606000Y-61468000D03*
%TD*%
D13*
%TO.P,R4,1*%
%TO.N,Net-(U2-Vin)*%
X151765000Y-36830000D03*
%TO.P,R4,2*%
%TO.N,Net-(D1-K)*%
X151765000Y-38655000D03*
%TD*%
D14*
%TO.P,Q1,1,G*%
%TO.N,Net-(D1-K)*%
X146987500Y-46101000D03*
D15*
%TO.P,Q1,2,D*%
%TO.N,Net-(J7-Pin_1)*%
X146232500Y-50726000D03*
X143182500Y-50726000D03*
D16*
X144707500Y-52401000D03*
D15*
X146232500Y-54076000D03*
X143182500Y-54076000D03*
D14*
%TO.P,Q1,3,S*%
%TO.N,GND*%
X142427500Y-46101000D03*
%TD*%
D17*
%TO.P,D1,1,K*%
%TO.N,Net-(D1-K)*%
X146176000Y-43180000D03*
%TO.P,D1,2,A*%
%TO.N,GND*%
X142876000Y-43180000D03*
%TD*%
D18*
%TO.P,R1,1*%
%TO.N,/I2C_CLK*%
X153416000Y-38662500D03*
%TO.P,R1,2*%
%TO.N,+3.3V*%
X153416000Y-36837500D03*
%TD*%
D19*
%TO.P,JP1,1,A*%
%TO.N,+5V*%
X143510000Y-58420000D03*
D20*
%TO.P,JP1,2,C*%
%TO.N,Net-(J8_UART0-Pin_5)*%
X143510000Y-60960000D03*
%TO.P,JP1,3,B*%
%TO.N,MotorControl*%
X143510000Y-63500000D03*
%TO.P,JP1,4,A*%
%TO.N,unconnected-(JP1-A-Pad4)*%
X146050000Y-60960000D03*
%TO.P,JP1,5,A*%
%TO.N,GND*%
X148590000Y-60960000D03*
%TD*%
D21*
%TO.P,J5_I2C1,1,Pin_1*%
%TO.N,/I2C_CLK*%
X123800000Y-33200000D03*
D22*
%TO.P,J5_I2C1,2,Pin_2*%
%TO.N,/I2C_SDA*%
X121300000Y-33200000D03*
%TO.P,J5_I2C1,3,Pin_3*%
%TO.N,GND*%
X118800000Y-33200000D03*
%TO.P,J5_I2C1,4,Pin_4*%
%TO.N,+5V*%
X116300000Y-33200000D03*
%TD*%
D23*
%TO.P,F2,1*%
%TO.N,Net-(J7-Pin_2)*%
X147320000Y-33020000D03*
%TO.P,F2,2*%
%TO.N,Net-(U2-Vin)*%
X147320000Y-39400000D03*
%TD*%
D24*
%TO.P,J2_I2C1,1,Pin_1*%
%TO.N,/I2C_CLK*%
X110550000Y-52500000D03*
D25*
%TO.P,J2_I2C1,2,Pin_2*%
%TO.N,/I2C_SDA*%
X110550000Y-55000000D03*
%TO.P,J2_I2C1,3,Pin_3*%
%TO.N,GND*%
X110550000Y-57500000D03*
%TD*%
D26*
%TO.P,J8_UART0,1,Pin_1*%
%TO.N,+5V*%
X151384000Y-55840000D03*
D25*
%TO.P,J8_UART0,2,Pin_2*%
%TO.N,Net-(J8_UART0-Pin_2)*%
X151384000Y-53340000D03*
%TO.P,J8_UART0,3,Pin_3*%
%TO.N,Net-(J8_UART0-Pin_3)*%
X151384000Y-50840000D03*
%TO.P,J8_UART0,4,Pin_4*%
%TO.N,GND*%
X151384000Y-48340000D03*
%TO.P,J8_UART0,5,Pin_5*%
%TO.N,Net-(J8_UART0-Pin_5)*%
X151384000Y-45840000D03*
%TD*%
D18*
%TO.P,R2,1*%
%TO.N,/I2C_SDA*%
X155067000Y-38655000D03*
%TO.P,R2,2*%
%TO.N,+3.3V*%
X155067000Y-36830000D03*
%TD*%
D26*
%TO.P,J4_I2C1,1,Pin_1*%
%TO.N,/I2C_CLK*%
X151500000Y-71500000D03*
D25*
%TO.P,J4_I2C1,2,Pin_2*%
%TO.N,/I2C_SDA*%
X151500000Y-69000000D03*
%TO.P,J4_I2C1,3,Pin_3*%
%TO.N,GND*%
X151500000Y-66500000D03*
%TD*%
D24*
%TO.P,J1_I2C1,1,Pin_1*%
%TO.N,/I2C_CLK*%
X110550000Y-41000000D03*
D25*
%TO.P,J1_I2C1,2,Pin_2*%
%TO.N,/I2C_SDA*%
X110550000Y-43500000D03*
%TO.P,J1_I2C1,3,Pin_3*%
%TO.N,GND*%
X110550000Y-46000000D03*
%TD*%
D24*
%TO.P,J3_I2C1,1,Pin_1*%
%TO.N,/I2C_CLK*%
X110525000Y-64000000D03*
D25*
%TO.P,J3_I2C1,2,Pin_2*%
%TO.N,/I2C_SDA*%
X110525000Y-66500000D03*
%TO.P,J3_I2C1,3,Pin_3*%
%TO.N,GND*%
X110525000Y-69000000D03*
%TD*%
D19*
%TO.P,J6,1,Pin_1*%
%TO.N,Net-(J6-Pin_1)*%
X149860000Y-91440000D03*
D27*
%TO.P,J6,2,Pin_2*%
%TO.N,GND*%
X152400000Y-91440000D03*
%TD*%
D28*
%TO.P,J7,1,Pin_1*%
%TO.N,Net-(J7-Pin_1)*%
X131064000Y-38335500D03*
D29*
%TO.P,J7,2,Pin_2*%
%TO.N,Net-(J7-Pin_2)*%
X136144000Y-38335500D03*
%TD*%
D30*
%TO.P,U1,S4,SHIELD*%
%TO.N,GND*%
X109750000Y-31916000D03*
%TO.P,U1,S3,SHIELD*%
X109750000Y-89916000D03*
%TO.P,U1,S2,SHIELD*%
X158750000Y-89916000D03*
%TO.P,U1,S1,SHIELD*%
X158750000Y-31916000D03*
D31*
%TO.P,U1,40,GPIO21*%
%TO.N,unconnected-(U1-GPIO21-Pad40)*%
X160020000Y-85046000D03*
%TO.P,U1,39,GND*%
%TO.N,GND*%
X157480000Y-85046000D03*
%TO.P,U1,38,GPIO20*%
%TO.N,unconnected-(U1-GPIO20-Pad38)*%
X160020000Y-82506000D03*
%TO.P,U1,37,GPIO26*%
%TO.N,unconnected-(U1-GPIO26-Pad37)*%
X157480000Y-82506000D03*
%TO.P,U1,36,GPIO16*%
%TO.N,unconnected-(U1-GPIO16-Pad36)*%
X160020000Y-79966000D03*
%TO.P,U1,35,GPIO19*%
%TO.N,unconnected-(U1-GPIO19-Pad35)*%
X157480000Y-79966000D03*
%TO.P,U1,34,GND*%
%TO.N,GND*%
X160020000Y-77426000D03*
%TO.P,U1,33,GPIO13*%
%TO.N,unconnected-(U1-GPIO13-Pad33)*%
X157480000Y-77426000D03*
%TO.P,U1,32,GPIO12*%
%TO.N,unconnected-(U1-GPIO12-Pad32)*%
X160020000Y-74886000D03*
%TO.P,U1,31,GPIO6*%
%TO.N,unconnected-(U1-GPIO6-Pad31)*%
X157480000Y-74886000D03*
%TO.P,U1,30,GND*%
%TO.N,GND*%
X160020000Y-72346000D03*
%TO.P,U1,29,GPIO5*%
%TO.N,Net-(J6-Pin_1)*%
X157480000Y-72346000D03*
%TO.P,U1,28,ID_SC*%
%TO.N,unconnected-(U1-ID_SC-Pad28)*%
X160020000Y-69806000D03*
%TO.P,U1,27,ID_SD*%
%TO.N,unconnected-(U1-ID_SD-Pad27)*%
X157480000Y-69806000D03*
%TO.P,U1,26,GPIO7/~{SPI_CE1}*%
%TO.N,unconnected-(U1-GPIO7{slash}~{SPI_CE1}-Pad26)*%
X160020000Y-67266000D03*
%TO.P,U1,25,GND*%
%TO.N,GND*%
X157480000Y-67266000D03*
%TO.P,U1,24,GPIO8/~{SPI_CE0}*%
%TO.N,unconnected-(U1-GPIO8{slash}~{SPI_CE0}-Pad24)*%
X160020000Y-64726000D03*
%TO.P,U1,23,GPIO11/SPI_SCLK*%
%TO.N,unconnected-(U1-GPIO11{slash}SPI_SCLK-Pad23)*%
X157480000Y-64726000D03*
%TO.P,U1,22,GPIO25/GPIO_GEN6*%
%TO.N,unconnected-(U1-GPIO25{slash}GPIO_GEN6-Pad22)*%
X160020000Y-62186000D03*
%TO.P,U1,21,GPIO9/SPI_MISO*%
%TO.N,unconnected-(U1-GPIO9{slash}SPI_MISO-Pad21)*%
X157480000Y-62186000D03*
%TO.P,U1,20,GND*%
%TO.N,GND*%
X160020000Y-59646000D03*
%TO.P,U1,19,GPIO10/SPI_MOSI*%
%TO.N,unconnected-(U1-GPIO10{slash}SPI_MOSI-Pad19)*%
X157480000Y-59646000D03*
%TO.P,U1,18,GPIO24/GPIO_GEN5*%
%TO.N,unconnected-(U1-GPIO24{slash}GPIO_GEN5-Pad18)*%
X160020000Y-57106000D03*
%TO.P,U1,17,3V3*%
%TO.N,unconnected-(U1-3V3-Pad17)*%
X157480000Y-57106000D03*
%TO.P,U1,16,GPIO23/GPIO_GEN4*%
%TO.N,unconnected-(U1-GPIO23{slash}GPIO_GEN4-Pad16)*%
X160020000Y-54566000D03*
%TO.P,U1,15,GPIO22/GPIO_GEN3*%
%TO.N,unconnected-(U1-GPIO22{slash}GPIO_GEN3-Pad15)*%
X157480000Y-54566000D03*
%TO.P,U1,14,GND*%
%TO.N,GND*%
X160020000Y-52026000D03*
%TO.P,U1,13,GPIO27/GPIO_GEN2*%
%TO.N,unconnected-(U1-GPIO27{slash}GPIO_GEN2-Pad13)*%
X157480000Y-52026000D03*
%TO.P,U1,12,GPIO18/GPIO_GEN1*%
%TO.N,MotorControl*%
X160020000Y-49486000D03*
%TO.P,U1,11,GPIO17/GPIO_GEN0*%
%TO.N,unconnected-(U1-GPIO17{slash}GPIO_GEN0-Pad11)*%
X157480000Y-49486000D03*
%TO.P,U1,10,GPIO15/RXD0*%
%TO.N,Net-(J8_UART0-Pin_2)*%
X160020000Y-46946000D03*
%TO.P,U1,9,GND*%
%TO.N,GND*%
X157480000Y-46946000D03*
%TO.P,U1,8,GPIO14/TXD0*%
%TO.N,Net-(J8_UART0-Pin_3)*%
X160020000Y-44406000D03*
%TO.P,U1,7,GPIO4/GPIO_GCKL*%
%TO.N,unconnected-(U1-GPIO4{slash}GPIO_GCKL-Pad7)*%
X157480000Y-44406000D03*
%TO.P,U1,6,GND*%
%TO.N,GND*%
X160020000Y-41866000D03*
%TO.P,U1,5,GPIO3/SCL1*%
%TO.N,/I2C_CLK*%
X157480000Y-41866000D03*
%TO.P,U1,4,5V*%
%TO.N,+5V*%
X160020000Y-39326000D03*
%TO.P,U1,3,GPIO2/SDA1*%
%TO.N,/I2C_SDA*%
X157480000Y-39326000D03*
%TO.P,U1,2,5V*%
%TO.N,+5V*%
X160020000Y-36786000D03*
D32*
%TO.P,U1,1,3V3*%
%TO.N,+3.3V*%
X157480000Y-36786000D03*
%TD*%
D26*
%TO.P,J9_I2C1,1,Pin_1*%
%TO.N,/I2C_CLK*%
X151500000Y-85500000D03*
D25*
%TO.P,J9_I2C1,2,Pin_2*%
%TO.N,/I2C_SDA*%
X151500000Y-83000000D03*
%TO.P,J9_I2C1,3,Pin_3*%
%TO.N,GND*%
X151500000Y-80500000D03*
%TO.P,J9_I2C1,4,Pin_4*%
%TO.N,+5V*%
X151500000Y-78000000D03*
%TD*%
D24*
%TO.P,J10_I2C1,1,Pin_1*%
%TO.N,/I2C_CLK*%
X110500000Y-75500000D03*
D25*
%TO.P,J10_I2C1,2,Pin_2*%
%TO.N,/I2C_SDA*%
X110500000Y-78000000D03*
%TO.P,J10_I2C1,3,Pin_3*%
%TO.N,GND*%
X110500000Y-80500000D03*
%TO.P,J10_I2C1,4,Pin_4*%
%TO.N,+5V*%
X110500000Y-83000000D03*
%TD*%
D33*
%TO.N,GND*%
X144780000Y-85090000D03*
%TO.N,/I2C_SDA*%
X154305000Y-40640000D03*
%TD*%
D34*
%TO.N,+5V*%
X138684000Y-91247400D02*
X138684000Y-90841000D01*
D35*
X138684000Y-91247400D02*
X138684000Y-89154000D01*
D34*
X138684000Y-90841000D02*
X130843000Y-83000000D01*
X130843000Y-83000000D02*
X110500000Y-83000000D01*
D35*
%TO.N,Net-(U2-Vin)*%
X138684000Y-43332400D02*
X140547600Y-43332400D01*
X144480000Y-39400000D02*
X147320000Y-39400000D01*
X140547600Y-43332400D02*
X144480000Y-39400000D01*
D36*
%TO.N,+5V*%
X116300000Y-33200000D02*
X116300000Y-36544000D01*
X116300000Y-36544000D02*
X120523000Y-40767000D01*
X120523000Y-40767000D02*
X120523000Y-48133000D01*
X120523000Y-48133000D02*
X140970000Y-68580000D01*
X140970000Y-68580000D02*
X140970000Y-69088000D01*
D35*
X141732000Y-86106000D02*
X138684000Y-89154000D01*
X138684000Y-89154000D02*
X140970000Y-86868000D01*
X140970000Y-60071000D02*
X140970000Y-69088000D01*
X140970000Y-69088000D02*
X140970000Y-86868000D01*
X147447000Y-58420000D02*
X148804000Y-58420000D01*
X143510000Y-58420000D02*
X147447000Y-58420000D01*
D34*
%TO.N,Net-(U2-Vin)*%
X151765000Y-36830000D02*
X149890000Y-36830000D01*
X149890000Y-36830000D02*
X147320000Y-39400000D01*
%TO.N,+3.3V*%
X153448500Y-36870000D02*
X157500000Y-36870000D01*
%TO.N,/I2C_SDA*%
X157500000Y-39410000D02*
X155822000Y-39410000D01*
X155822000Y-39410000D02*
X155067000Y-38655000D01*
%TO.N,/I2C_CLK*%
X157500000Y-41950000D02*
X154345000Y-41950000D01*
X154345000Y-41950000D02*
X153416000Y-41021000D01*
X153416000Y-41021000D02*
X153416000Y-38662500D01*
%TO.N,Net-(D1-K)*%
X146176000Y-43180000D02*
X148215000Y-43180000D01*
X148215000Y-43180000D02*
X151765000Y-39630000D01*
X151765000Y-39630000D02*
X151765000Y-38655000D01*
%TO.N,GND*%
X142876000Y-43180000D02*
X142876000Y-45135500D01*
X142876000Y-45135500D02*
X142427500Y-45584000D01*
%TO.N,Net-(D1-K)*%
X146987500Y-45584000D02*
X146176000Y-44772500D01*
X146176000Y-44772500D02*
X146176000Y-43180000D01*
D35*
%TO.N,+5V*%
X143510000Y-58420000D02*
X142621000Y-58420000D01*
X142621000Y-58420000D02*
X140970000Y-60071000D01*
X148804000Y-58420000D02*
X151384000Y-55840000D01*
X151384000Y-55840000D02*
X151344000Y-55800000D01*
%TO.N,Net-(J7-Pin_1)*%
X131206000Y-42545500D02*
X140544500Y-51884000D01*
X140544500Y-51884000D02*
X144707500Y-51884000D01*
D34*
%TO.N,Net-(J8_UART0-Pin_2)*%
X151384000Y-53340000D02*
X151418875Y-53340000D01*
X151418875Y-53340000D02*
X156498875Y-48260000D01*
X156498875Y-48260000D02*
X158706000Y-48260000D01*
X158706000Y-48260000D02*
X160020000Y-46946000D01*
%TO.N,Net-(J8_UART0-Pin_3)*%
X160020000Y-44406000D02*
X158933000Y-45493000D01*
X158933000Y-45493000D02*
X156731000Y-45493000D01*
X156731000Y-45493000D02*
X151424000Y-50800000D01*
D35*
%TO.N,Net-(J7-Pin_2)*%
X136144000Y-38335500D02*
X136162500Y-38354000D01*
X136162500Y-38354000D02*
X141986000Y-38354000D01*
X141986000Y-38354000D02*
X147320000Y-33020000D01*
%TO.N,Net-(J7-Pin_1)*%
X131064000Y-38335500D02*
X131206000Y-38477500D01*
X131206000Y-38477500D02*
X131206000Y-42545500D01*
%TO.N,+5V*%
X151500000Y-78000000D02*
X149838000Y-78000000D01*
X149838000Y-78000000D02*
X140970000Y-86868000D01*
D34*
%TO.N,GND*%
X149370000Y-80500000D02*
X144780000Y-85090000D01*
X151500000Y-80500000D02*
X149370000Y-80500000D01*
D36*
%TO.N,+5V*%
X155750000Y-43250000D02*
X155806000Y-43194000D01*
X155806000Y-43194000D02*
X157970027Y-43194000D01*
X157970027Y-43194000D02*
X158750000Y-42414027D01*
X158750000Y-42414027D02*
X158750000Y-40725000D01*
X158750000Y-40725000D02*
X160040000Y-39435000D01*
X160040000Y-39435000D02*
X160040000Y-36870000D01*
D34*
%TO.N,Net-(U2-Vin)*%
X147290000Y-39370000D02*
X147320000Y-39400000D01*
%TO.N,/I2C_SDA*%
X156254000Y-39326000D02*
X157480000Y-39326000D01*
X154305000Y-40640000D02*
X154940000Y-40640000D01*
X154940000Y-40640000D02*
X156254000Y-39326000D01*
X151500000Y-69000000D02*
X152800000Y-70300000D01*
X152800000Y-70300000D02*
X152800000Y-81700000D01*
X152800000Y-81700000D02*
X151500000Y-83000000D01*
%TO.N,MotorControl*%
X153912500Y-62250000D02*
X156393000Y-59769500D01*
X156393000Y-54115749D02*
X157395749Y-53113000D01*
X156393000Y-59769500D02*
X156393000Y-54115749D01*
X157395749Y-53113000D02*
X157930251Y-53113000D01*
X157930251Y-53113000D02*
X158750000Y-52293251D01*
X158750000Y-52293251D02*
X158750000Y-50756000D01*
X158750000Y-50756000D02*
X160020000Y-49486000D01*
X143510000Y-63500000D02*
X152662500Y-63500000D01*
X152662500Y-63500000D02*
X153912500Y-62250000D01*
D35*
%TO.N,Net-(J7-Pin_2)*%
X145340000Y-35000000D02*
X147320000Y-33020000D01*
%TO.N,+5V*%
X148804000Y-58420000D02*
X148971000Y-58253000D01*
X148971000Y-58253000D02*
X148971000Y-45935969D01*
X148971000Y-45935969D02*
X151656969Y-43250000D01*
X151656969Y-43250000D02*
X155750000Y-43250000D01*
%TD*%
%TA.AperFunction,Conductor*%
%TO.N,GND*%
G36*
X157009156Y-28499477D02*
G01*
X157076186Y-28519174D01*
X157121930Y-28571988D01*
X157131859Y-28641148D01*
X157102821Y-28704698D01*
X157065421Y-28733960D01*
X156947531Y-28794028D01*
X156947527Y-28794030D01*
X156631070Y-28999540D01*
X156385750Y-29198197D01*
X157970383Y-30782830D01*
X157854247Y-30867209D01*
X157701209Y-31020247D01*
X157616830Y-31136383D01*
X156032197Y-29551750D01*
X155833540Y-29797070D01*
X155628032Y-30113525D01*
X155456724Y-30449735D01*
X155321499Y-30802007D01*
X155223837Y-31166489D01*
X155223836Y-31166496D01*
X155164808Y-31539179D01*
X155145060Y-31915999D01*
X155145060Y-31916000D01*
X155164808Y-32292820D01*
X155223836Y-32665503D01*
X155223837Y-32665510D01*
X155321499Y-33029992D01*
X155456724Y-33382264D01*
X155628032Y-33718474D01*
X155833536Y-34034923D01*
X156032197Y-34280248D01*
X157616830Y-32695615D01*
X157701209Y-32811753D01*
X157854247Y-32964791D01*
X157970383Y-33049169D01*
X156385750Y-34633801D01*
X156631076Y-34832463D01*
X156947525Y-35037967D01*
X157283735Y-35209275D01*
X157477713Y-35283736D01*
X157533245Y-35326138D01*
X157557038Y-35391832D01*
X157541537Y-35459960D01*
X157491663Y-35508893D01*
X157433275Y-35523500D01*
X156670129Y-35523500D01*
X156670123Y-35523501D01*
X156610516Y-35529908D01*
X156475671Y-35580202D01*
X156475664Y-35580206D01*
X156360455Y-35666452D01*
X156360452Y-35666455D01*
X156274206Y-35781664D01*
X156274202Y-35781671D01*
X156223908Y-35916517D01*
X156218010Y-35971380D01*
X156217501Y-35976123D01*
X156217500Y-35976135D01*
X156217500Y-36120500D01*
X156197815Y-36187539D01*
X156145011Y-36233294D01*
X156093500Y-36244500D01*
X156033863Y-36244500D01*
X155966824Y-36224815D01*
X155928324Y-36185596D01*
X155907810Y-36152338D01*
X155887340Y-36119150D01*
X155765350Y-35997160D01*
X155634607Y-35916517D01*
X155618518Y-35906593D01*
X155618513Y-35906591D01*
X155617069Y-35906112D01*
X155454753Y-35852326D01*
X155454751Y-35852325D01*
X155353678Y-35842000D01*
X154780330Y-35842000D01*
X154780312Y-35842001D01*
X154679247Y-35852325D01*
X154515484Y-35906592D01*
X154515481Y-35906593D01*
X154368648Y-35997161D01*
X154325431Y-36040379D01*
X154264108Y-36073864D01*
X154194416Y-36068880D01*
X154150069Y-36040379D01*
X154114351Y-36004661D01*
X154114350Y-36004660D01*
X153967516Y-35914092D01*
X153803753Y-35859826D01*
X153803751Y-35859825D01*
X153702678Y-35849500D01*
X153129330Y-35849500D01*
X153129312Y-35849501D01*
X153028247Y-35859825D01*
X152864484Y-35914092D01*
X152864481Y-35914093D01*
X152717648Y-36004661D01*
X152681930Y-36040379D01*
X152620607Y-36073864D01*
X152550915Y-36068878D01*
X152506570Y-36040379D01*
X152463351Y-35997161D01*
X152463350Y-35997160D01*
X152332607Y-35916517D01*
X152316518Y-35906593D01*
X152316513Y-35906591D01*
X152315069Y-35906112D01*
X152152753Y-35852326D01*
X152152751Y-35852325D01*
X152051678Y-35842000D01*
X151478330Y-35842000D01*
X151478312Y-35842001D01*
X151377247Y-35852325D01*
X151213484Y-35906592D01*
X151213481Y-35906593D01*
X151066648Y-35997161D01*
X150944659Y-36119150D01*
X150928348Y-36145596D01*
X150876400Y-36192321D01*
X150822809Y-36204500D01*
X149828389Y-36204500D01*
X149767971Y-36216518D01*
X149707548Y-36228537D01*
X149707546Y-36228537D01*
X149707545Y-36228538D01*
X149707543Y-36228538D01*
X149669009Y-36244499D01*
X149669010Y-36244500D01*
X149593718Y-36275686D01*
X149593711Y-36275690D01*
X149576620Y-36287110D01*
X149568190Y-36292743D01*
X149568189Y-36292744D01*
X149568188Y-36292743D01*
X149491266Y-36344142D01*
X149491265Y-36344143D01*
X149447704Y-36387705D01*
X149404142Y-36431267D01*
X149404139Y-36431270D01*
X149092227Y-36743181D01*
X149030904Y-36776666D01*
X149004546Y-36779500D01*
X145367129Y-36779500D01*
X145367123Y-36779501D01*
X145307516Y-36785908D01*
X145301721Y-36788070D01*
X145232029Y-36793049D01*
X145170708Y-36759560D01*
X145137227Y-36698235D01*
X145142216Y-36628544D01*
X145170712Y-36584206D01*
X146078101Y-35676818D01*
X146139424Y-35643333D01*
X146165782Y-35640499D01*
X149272871Y-35640499D01*
X149272872Y-35640499D01*
X149332483Y-35634091D01*
X149467331Y-35583796D01*
X149582546Y-35497546D01*
X149668796Y-35382331D01*
X149719091Y-35247483D01*
X149725500Y-35187873D01*
X149725499Y-30852128D01*
X149719091Y-30792517D01*
X149699501Y-30739994D01*
X149668797Y-30657671D01*
X149668793Y-30657664D01*
X149582547Y-30542455D01*
X149582544Y-30542452D01*
X149467335Y-30456206D01*
X149467328Y-30456202D01*
X149332482Y-30405908D01*
X149332483Y-30405908D01*
X149272883Y-30399501D01*
X149272881Y-30399500D01*
X149272873Y-30399500D01*
X149272864Y-30399500D01*
X145367129Y-30399500D01*
X145367123Y-30399501D01*
X145307516Y-30405908D01*
X145172671Y-30456202D01*
X145172664Y-30456206D01*
X145057455Y-30542452D01*
X145057452Y-30542455D01*
X144971206Y-30657664D01*
X144971202Y-30657671D01*
X144920908Y-30792517D01*
X144914501Y-30852116D01*
X144914501Y-30852123D01*
X144914500Y-30852135D01*
X144914500Y-33959217D01*
X144894815Y-34026256D01*
X144878181Y-34046898D01*
X141607899Y-37317181D01*
X141546576Y-37350666D01*
X141520218Y-37353500D01*
X137691548Y-37353500D01*
X137624509Y-37333815D01*
X137594602Y-37306814D01*
X137449180Y-37124463D01*
X137254110Y-36943465D01*
X137223295Y-36922456D01*
X137034240Y-36793560D01*
X137034236Y-36793558D01*
X137034233Y-36793556D01*
X137034232Y-36793555D01*
X136794484Y-36678100D01*
X136794486Y-36678100D01*
X136540195Y-36599661D01*
X136540189Y-36599659D01*
X136277062Y-36560000D01*
X136277055Y-36560000D01*
X136010945Y-36560000D01*
X136010937Y-36560000D01*
X135747810Y-36599659D01*
X135747804Y-36599661D01*
X135493514Y-36678100D01*
X135253769Y-36793555D01*
X135253760Y-36793560D01*
X135033892Y-36943463D01*
X134838820Y-37124462D01*
X134672899Y-37332520D01*
X134539844Y-37562978D01*
X134442625Y-37810689D01*
X134442620Y-37810706D01*
X134383405Y-38070140D01*
X134383405Y-38070142D01*
X134363521Y-38335495D01*
X134363521Y-38335504D01*
X134383405Y-38600857D01*
X134383405Y-38600859D01*
X134414380Y-38736569D01*
X134442623Y-38860305D01*
X134539844Y-39108021D01*
X134672899Y-39338480D01*
X134804852Y-39503942D01*
X134838820Y-39546537D01*
X134942782Y-39642999D01*
X135033890Y-39727535D01*
X135253761Y-39877440D01*
X135493514Y-39992899D01*
X135493515Y-39992899D01*
X135493518Y-39992901D01*
X135747806Y-40071339D01*
X135747807Y-40071339D01*
X135747810Y-40071340D01*
X136010937Y-40110999D01*
X136010942Y-40110999D01*
X136010945Y-40111000D01*
X136010946Y-40111000D01*
X136277054Y-40111000D01*
X136277055Y-40111000D01*
X136277062Y-40110999D01*
X136540189Y-40071340D01*
X136540190Y-40071339D01*
X136540194Y-40071339D01*
X136794482Y-39992901D01*
X137034240Y-39877440D01*
X137254110Y-39727535D01*
X137449183Y-39546533D01*
X137565093Y-39401186D01*
X137622282Y-39361047D01*
X137662040Y-39354500D01*
X142084543Y-39354500D01*
X142180059Y-39335500D01*
X142227819Y-39326000D01*
X142277836Y-39316051D01*
X142331165Y-39293961D01*
X142459914Y-39240632D01*
X142623782Y-39131139D01*
X142763139Y-38991782D01*
X142763140Y-38991779D01*
X142770206Y-38984714D01*
X142770209Y-38984710D01*
X144719206Y-37035712D01*
X144780527Y-37002229D01*
X144850219Y-37007213D01*
X144906152Y-37049085D01*
X144930569Y-37114549D01*
X144923070Y-37166721D01*
X144920908Y-37172516D01*
X144914501Y-37232116D01*
X144914500Y-37232135D01*
X144914500Y-38275500D01*
X144894815Y-38342539D01*
X144842011Y-38388294D01*
X144790500Y-38399500D01*
X144381456Y-38399500D01*
X144188171Y-38437946D01*
X144188167Y-38437948D01*
X144188165Y-38437948D01*
X144188164Y-38437949D01*
X144112745Y-38469188D01*
X144112743Y-38469189D01*
X144006085Y-38513368D01*
X144006085Y-38513369D01*
X144006084Y-38513369D01*
X143842222Y-38622857D01*
X143842214Y-38622863D01*
X140601388Y-41863689D01*
X140540065Y-41897174D01*
X140470373Y-41892190D01*
X140414440Y-41850318D01*
X140402144Y-41827800D01*
X140402047Y-41827854D01*
X140397793Y-41820064D01*
X140311547Y-41704855D01*
X140311544Y-41704852D01*
X140196335Y-41618606D01*
X140196328Y-41618602D01*
X140061482Y-41568308D01*
X140061483Y-41568308D01*
X140001883Y-41561901D01*
X140001881Y-41561900D01*
X140001873Y-41561900D01*
X140001864Y-41561900D01*
X137366129Y-41561900D01*
X137366123Y-41561901D01*
X137306516Y-41568308D01*
X137171671Y-41618602D01*
X137171664Y-41618606D01*
X137056455Y-41704852D01*
X137056452Y-41704855D01*
X136970206Y-41820064D01*
X136970202Y-41820071D01*
X136919908Y-41954917D01*
X136913501Y-42014516D01*
X136913500Y-42014535D01*
X136913500Y-44650270D01*
X136913501Y-44650276D01*
X136919908Y-44709883D01*
X136970202Y-44844728D01*
X136970206Y-44844735D01*
X137056452Y-44959944D01*
X137056455Y-44959947D01*
X137171664Y-45046193D01*
X137171671Y-45046197D01*
X137306517Y-45096491D01*
X137306516Y-45096491D01*
X137313444Y-45097235D01*
X137366127Y-45102900D01*
X140001872Y-45102899D01*
X140061483Y-45096491D01*
X140196331Y-45046196D01*
X140311546Y-44959946D01*
X140397796Y-44844731D01*
X140448091Y-44709883D01*
X140454500Y-44650273D01*
X140454500Y-44500999D01*
X142677500Y-44500999D01*
X142677500Y-45851000D01*
X143527499Y-45851000D01*
X143527499Y-45201028D01*
X143527498Y-45201013D01*
X143517005Y-45098302D01*
X143461858Y-44931880D01*
X143461856Y-44931875D01*
X143369815Y-44782654D01*
X143245845Y-44658684D01*
X143096624Y-44566643D01*
X143096619Y-44566641D01*
X142930197Y-44511494D01*
X142930190Y-44511493D01*
X142827486Y-44501000D01*
X142704362Y-44501000D01*
X142683596Y-44494902D01*
X142677500Y-44500999D01*
X140454500Y-44500999D01*
X140454500Y-44456900D01*
X140474185Y-44389861D01*
X140526989Y-44344106D01*
X140578500Y-44332900D01*
X140646143Y-44332900D01*
X140734048Y-44315414D01*
X140778002Y-44306671D01*
X140839436Y-44294451D01*
X140928112Y-44257720D01*
X141021514Y-44219032D01*
X141185382Y-44109539D01*
X141324739Y-43970182D01*
X141324739Y-43970180D01*
X141334947Y-43959973D01*
X141334948Y-43959970D01*
X141719759Y-43575159D01*
X141781078Y-43541677D01*
X141850769Y-43546661D01*
X141906703Y-43588532D01*
X141930794Y-43650240D01*
X141936144Y-43702607D01*
X141989452Y-43863481D01*
X141989457Y-43863492D01*
X142078424Y-44007728D01*
X142078427Y-44007732D01*
X142198267Y-44127572D01*
X142198271Y-44127575D01*
X142342507Y-44216542D01*
X142342518Y-44216547D01*
X142503393Y-44269855D01*
X142602669Y-44279998D01*
X142605440Y-44280139D01*
X142620571Y-44285428D01*
X142626000Y-44279999D01*
X143126000Y-44279999D01*
X143149308Y-44279999D01*
X143149322Y-44279998D01*
X143248607Y-44269855D01*
X143409481Y-44216547D01*
X143409492Y-44216542D01*
X143553728Y-44127575D01*
X143553732Y-44127572D01*
X143673572Y-44007732D01*
X143673575Y-44007728D01*
X143762542Y-43863492D01*
X143762547Y-43863481D01*
X143815855Y-43702606D01*
X143825999Y-43603322D01*
X143826000Y-43603309D01*
X143826000Y-43430000D01*
X143126000Y-43430000D01*
X143126000Y-44279999D01*
X142626000Y-44279999D01*
X142626000Y-43304000D01*
X142645685Y-43236961D01*
X142698489Y-43191206D01*
X142750000Y-43180000D01*
X142876000Y-43180000D01*
X142876000Y-43054000D01*
X142895685Y-42986961D01*
X142948489Y-42941206D01*
X143000000Y-42930000D01*
X143825999Y-42930000D01*
X143825999Y-42756692D01*
X143825998Y-42756677D01*
X143815855Y-42657392D01*
X143762547Y-42496518D01*
X143762542Y-42496507D01*
X143673575Y-42352271D01*
X143673572Y-42352267D01*
X143553732Y-42232427D01*
X143553728Y-42232424D01*
X143409492Y-42143457D01*
X143409481Y-42143452D01*
X143406513Y-42142469D01*
X143404741Y-42141242D01*
X143402941Y-42140403D01*
X143403084Y-42140095D01*
X143349068Y-42102697D01*
X143322245Y-42038181D01*
X143334560Y-41969405D01*
X143357830Y-41937089D01*
X144702821Y-40592098D01*
X144764143Y-40558615D01*
X144833835Y-40563599D01*
X144889768Y-40605471D01*
X144914185Y-40670935D01*
X144914501Y-40679781D01*
X144914501Y-41567876D01*
X144920908Y-41627483D01*
X144971202Y-41762328D01*
X144971206Y-41762335D01*
X145057452Y-41877544D01*
X145057455Y-41877547D01*
X145172664Y-41963793D01*
X145172671Y-41963797D01*
X145307517Y-42014091D01*
X145307516Y-42014091D01*
X145314444Y-42014835D01*
X145367127Y-42020500D01*
X145410126Y-42020499D01*
X145477163Y-42040182D01*
X145522919Y-42092985D01*
X145532864Y-42162143D01*
X145503841Y-42225700D01*
X145497808Y-42232180D01*
X145378029Y-42351959D01*
X145289001Y-42496294D01*
X145288996Y-42496305D01*
X145235651Y-42657290D01*
X145225500Y-42756647D01*
X145225500Y-43603337D01*
X145225501Y-43603355D01*
X145235650Y-43702707D01*
X145235651Y-43702710D01*
X145288996Y-43863694D01*
X145289001Y-43863705D01*
X145378029Y-44008040D01*
X145378032Y-44008044D01*
X145497956Y-44127968D01*
X145497963Y-44127972D01*
X145503404Y-44132274D01*
X145543785Y-44189293D01*
X145550500Y-44229546D01*
X145550500Y-44834111D01*
X145574535Y-44954944D01*
X145574540Y-44954961D01*
X145621685Y-45068781D01*
X145621688Y-45068786D01*
X145644481Y-45102897D01*
X145644482Y-45102900D01*
X145644483Y-45102900D01*
X145690141Y-45171232D01*
X145690144Y-45171236D01*
X145781586Y-45262678D01*
X145781608Y-45262698D01*
X145850681Y-45331771D01*
X145884166Y-45393094D01*
X145887000Y-45419452D01*
X145887000Y-47001001D01*
X145887001Y-47001018D01*
X145897500Y-47103796D01*
X145897501Y-47103799D01*
X145946311Y-47251095D01*
X145952686Y-47270334D01*
X146044788Y-47419656D01*
X146168844Y-47543712D01*
X146318166Y-47635814D01*
X146484703Y-47690999D01*
X146587491Y-47701500D01*
X147387508Y-47701499D01*
X147387516Y-47701498D01*
X147387519Y-47701498D01*
X147443802Y-47695748D01*
X147490297Y-47690999D01*
X147656834Y-47635814D01*
X147781404Y-47558978D01*
X147848796Y-47540539D01*
X147915459Y-47561462D01*
X147960229Y-47615104D01*
X147970500Y-47664518D01*
X147970500Y-48725144D01*
X147950815Y-48792183D01*
X147898011Y-48837938D01*
X147828853Y-48847882D01*
X147781403Y-48830683D01*
X147676838Y-48766186D01*
X147676833Y-48766184D01*
X147510301Y-48711001D01*
X147407519Y-48700500D01*
X147407512Y-48700500D01*
X142007488Y-48700500D01*
X142007480Y-48700500D01*
X141904698Y-48711001D01*
X141738166Y-48766184D01*
X141738155Y-48766189D01*
X141588846Y-48858285D01*
X141588842Y-48858288D01*
X141464788Y-48982342D01*
X141464785Y-48982346D01*
X141372689Y-49131655D01*
X141372684Y-49131666D01*
X141317501Y-49298198D01*
X141307000Y-49400980D01*
X141307000Y-50759500D01*
X141287315Y-50826539D01*
X141234511Y-50872294D01*
X141183000Y-50883500D01*
X141010283Y-50883500D01*
X140943244Y-50863815D01*
X140922602Y-50847181D01*
X137076407Y-47000986D01*
X141327501Y-47000986D01*
X141337994Y-47103697D01*
X141393141Y-47270119D01*
X141393143Y-47270124D01*
X141485184Y-47419345D01*
X141609154Y-47543315D01*
X141758375Y-47635356D01*
X141758380Y-47635358D01*
X141924802Y-47690505D01*
X141924809Y-47690506D01*
X142027519Y-47700999D01*
X142177499Y-47700999D01*
X142677500Y-47700999D01*
X142827472Y-47700999D01*
X142827486Y-47700998D01*
X142930197Y-47690505D01*
X143096619Y-47635358D01*
X143096624Y-47635356D01*
X143245845Y-47543315D01*
X143369815Y-47419345D01*
X143461856Y-47270124D01*
X143461858Y-47270119D01*
X143517005Y-47103697D01*
X143517006Y-47103690D01*
X143527499Y-47000986D01*
X143527500Y-47000973D01*
X143527500Y-46351000D01*
X142677500Y-46351000D01*
X142677500Y-47700999D01*
X142177499Y-47700999D01*
X142177500Y-47700998D01*
X142177500Y-46351000D01*
X141327501Y-46351000D01*
X141327501Y-47000986D01*
X137076407Y-47000986D01*
X135276434Y-45201013D01*
X141327500Y-45201013D01*
X141327500Y-45851000D01*
X142177500Y-45851000D01*
X142177500Y-44501000D01*
X142027527Y-44501000D01*
X142027512Y-44501001D01*
X141924802Y-44511494D01*
X141758380Y-44566641D01*
X141758375Y-44566643D01*
X141609154Y-44658684D01*
X141485184Y-44782654D01*
X141393143Y-44931875D01*
X141393141Y-44931880D01*
X141337994Y-45098302D01*
X141337993Y-45098309D01*
X141327500Y-45201013D01*
X135276434Y-45201013D01*
X132242819Y-42167398D01*
X132209334Y-42106075D01*
X132206500Y-42079717D01*
X132206500Y-40234999D01*
X132226185Y-40167960D01*
X132278989Y-40122205D01*
X132330500Y-40110999D01*
X132386871Y-40110999D01*
X132386872Y-40110999D01*
X132446483Y-40104591D01*
X132581331Y-40054296D01*
X132696546Y-39968046D01*
X132782796Y-39852831D01*
X132833091Y-39717983D01*
X132839500Y-39658373D01*
X132839499Y-37012628D01*
X132833091Y-36953017D01*
X132829528Y-36943465D01*
X132782797Y-36818171D01*
X132782793Y-36818164D01*
X132696547Y-36702955D01*
X132696544Y-36702952D01*
X132581335Y-36616706D01*
X132581328Y-36616702D01*
X132446482Y-36566408D01*
X132446483Y-36566408D01*
X132386883Y-36560001D01*
X132386881Y-36560000D01*
X132386873Y-36560000D01*
X132386864Y-36560000D01*
X129741129Y-36560000D01*
X129741123Y-36560001D01*
X129681516Y-36566408D01*
X129546671Y-36616702D01*
X129546664Y-36616706D01*
X129431455Y-36702952D01*
X129431452Y-36702955D01*
X129345206Y-36818164D01*
X129345202Y-36818171D01*
X129294908Y-36953017D01*
X129289618Y-37002229D01*
X129288501Y-37012623D01*
X129288500Y-37012635D01*
X129288500Y-39658370D01*
X129288501Y-39658376D01*
X129294908Y-39717983D01*
X129345202Y-39852828D01*
X129345206Y-39852835D01*
X129431452Y-39968044D01*
X129431455Y-39968047D01*
X129546664Y-40054293D01*
X129546671Y-40054297D01*
X129591618Y-40071061D01*
X129681517Y-40104591D01*
X129741127Y-40111000D01*
X130081500Y-40110999D01*
X130148539Y-40130683D01*
X130194294Y-40183487D01*
X130205500Y-40234999D01*
X130205500Y-42446960D01*
X130205500Y-42644040D01*
X130205500Y-42644042D01*
X130205499Y-42644042D01*
X130243947Y-42837329D01*
X130243950Y-42837339D01*
X130244434Y-42838505D01*
X130244447Y-42838538D01*
X130319364Y-43019407D01*
X130319371Y-43019420D01*
X130428859Y-43183280D01*
X130428860Y-43183281D01*
X130428861Y-43183282D01*
X130568218Y-43322639D01*
X130568219Y-43322639D01*
X130575286Y-43329706D01*
X130575285Y-43329706D01*
X130575288Y-43329708D01*
X139767360Y-52521781D01*
X139767361Y-52521782D01*
X139877763Y-52632184D01*
X139906719Y-52661140D01*
X140070580Y-52770628D01*
X140070586Y-52770632D01*
X140177245Y-52814811D01*
X140252664Y-52846051D01*
X140445954Y-52884499D01*
X140445957Y-52884500D01*
X140445959Y-52884500D01*
X141183000Y-52884500D01*
X141250039Y-52904185D01*
X141295794Y-52956989D01*
X141307000Y-53008500D01*
X141307000Y-55401019D01*
X141317501Y-55503801D01*
X141372684Y-55670333D01*
X141372689Y-55670344D01*
X141464785Y-55819653D01*
X141464788Y-55819657D01*
X141588842Y-55943711D01*
X141588846Y-55943714D01*
X141738155Y-56035810D01*
X141738158Y-56035811D01*
X141738164Y-56035815D01*
X141904700Y-56090999D01*
X142007488Y-56101500D01*
X142007491Y-56101500D01*
X142007493Y-56101500D01*
X147407507Y-56101500D01*
X147407512Y-56101500D01*
X147510300Y-56090999D01*
X147676836Y-56035815D01*
X147781403Y-55971316D01*
X147848795Y-55952876D01*
X147915458Y-55973798D01*
X147960228Y-56027440D01*
X147970500Y-56076855D01*
X147970500Y-57295500D01*
X147950815Y-57362539D01*
X147898011Y-57408294D01*
X147846500Y-57419500D01*
X144924141Y-57419500D01*
X144857102Y-57399815D01*
X144811347Y-57347011D01*
X144807969Y-57338859D01*
X144803796Y-57327669D01*
X144803793Y-57327665D01*
X144803793Y-57327664D01*
X144717547Y-57212455D01*
X144717544Y-57212452D01*
X144602335Y-57126206D01*
X144602328Y-57126202D01*
X144467482Y-57075908D01*
X144467483Y-57075908D01*
X144407883Y-57069501D01*
X144407881Y-57069500D01*
X144407873Y-57069500D01*
X144407864Y-57069500D01*
X142612129Y-57069500D01*
X142612123Y-57069501D01*
X142552516Y-57075908D01*
X142417671Y-57126202D01*
X142417664Y-57126206D01*
X142302455Y-57212452D01*
X142302452Y-57212455D01*
X142216206Y-57327664D01*
X142216202Y-57327671D01*
X142165909Y-57462515D01*
X142165355Y-57467668D01*
X142138613Y-57532217D01*
X142110957Y-57557507D01*
X141983219Y-57642859D01*
X141983215Y-57642862D01*
X140742374Y-58883705D01*
X140332220Y-59293859D01*
X140332218Y-59293861D01*
X140291999Y-59334080D01*
X140192859Y-59433219D01*
X140083371Y-59597080D01*
X140083364Y-59597093D01*
X140063107Y-59646000D01*
X140046499Y-59686097D01*
X140016658Y-59758138D01*
X140011541Y-59770494D01*
X140011540Y-59770497D01*
X140007949Y-59779164D01*
X140007946Y-59779175D01*
X139969500Y-59972454D01*
X139969500Y-66218770D01*
X139949815Y-66285809D01*
X139897011Y-66331564D01*
X139827853Y-66341508D01*
X139764297Y-66312483D01*
X139757819Y-66306451D01*
X121309819Y-47858451D01*
X121276334Y-47797128D01*
X121273500Y-47770770D01*
X121273500Y-40693079D01*
X121244659Y-40548092D01*
X121244658Y-40548091D01*
X121244658Y-40548087D01*
X121236508Y-40528411D01*
X121188085Y-40411507D01*
X121180730Y-40400500D01*
X121155040Y-40362051D01*
X121105952Y-40288584D01*
X121105950Y-40288582D01*
X121105948Y-40288579D01*
X117086819Y-36269450D01*
X117053334Y-36208127D01*
X117050500Y-36181769D01*
X117050500Y-34512220D01*
X117070185Y-34445181D01*
X117101614Y-34411902D01*
X117179792Y-34355104D01*
X117330104Y-34204792D01*
X117449991Y-34039779D01*
X117505320Y-33997115D01*
X117574933Y-33991136D01*
X117636729Y-34023741D01*
X117650627Y-34039781D01*
X117770272Y-34204459D01*
X117770276Y-34204464D01*
X117920535Y-34354723D01*
X117920540Y-34354727D01*
X118092442Y-34479620D01*
X118281782Y-34576095D01*
X118483871Y-34641757D01*
X118550000Y-34652231D01*
X118550000Y-33604145D01*
X118616657Y-33642630D01*
X118737465Y-33675000D01*
X118862535Y-33675000D01*
X118983343Y-33642630D01*
X119050000Y-33604145D01*
X119050000Y-34652230D01*
X119116126Y-34641757D01*
X119116129Y-34641757D01*
X119318217Y-34576095D01*
X119507557Y-34479620D01*
X119679459Y-34354727D01*
X119679464Y-34354723D01*
X119829721Y-34204466D01*
X119949371Y-34039781D01*
X120004701Y-33997115D01*
X120074314Y-33991136D01*
X120136110Y-34023741D01*
X120150008Y-34039781D01*
X120269890Y-34204785D01*
X120269894Y-34204790D01*
X120420213Y-34355109D01*
X120592179Y-34480048D01*
X120592181Y-34480049D01*
X120592184Y-34480051D01*
X120781588Y-34576557D01*
X120983757Y-34642246D01*
X121193713Y-34675500D01*
X121193714Y-34675500D01*
X121406286Y-34675500D01*
X121406287Y-34675500D01*
X121616243Y-34642246D01*
X121818412Y-34576557D01*
X122007816Y-34480051D01*
X122179792Y-34355104D01*
X122318604Y-34216291D01*
X122379923Y-34182809D01*
X122449615Y-34187793D01*
X122505549Y-34229664D01*
X122511821Y-34238878D01*
X122515185Y-34244333D01*
X122515186Y-34244334D01*
X122607288Y-34393656D01*
X122731344Y-34517712D01*
X122880666Y-34609814D01*
X123047203Y-34664999D01*
X123149991Y-34675500D01*
X124450008Y-34675499D01*
X124552797Y-34664999D01*
X124719334Y-34609814D01*
X124868656Y-34517712D01*
X124992712Y-34393656D01*
X125084814Y-34244334D01*
X125139999Y-34077797D01*
X125150500Y-33975009D01*
X125150499Y-32424992D01*
X125148851Y-32408863D01*
X125139999Y-32322203D01*
X125139998Y-32322200D01*
X125102104Y-32207845D01*
X125084814Y-32155666D01*
X124992712Y-32006344D01*
X124868656Y-31882288D01*
X124719334Y-31790186D01*
X124552797Y-31735001D01*
X124552795Y-31735000D01*
X124450010Y-31724500D01*
X123149998Y-31724500D01*
X123149981Y-31724501D01*
X123047203Y-31735000D01*
X123047200Y-31735001D01*
X122880668Y-31790185D01*
X122880663Y-31790187D01*
X122731342Y-31882289D01*
X122607289Y-32006342D01*
X122511821Y-32161121D01*
X122459873Y-32207845D01*
X122390910Y-32219068D01*
X122326828Y-32191224D01*
X122318601Y-32183705D01*
X122179786Y-32044890D01*
X122007820Y-31919951D01*
X121818414Y-31823444D01*
X121818413Y-31823443D01*
X121818412Y-31823443D01*
X121616243Y-31757754D01*
X121616241Y-31757753D01*
X121616240Y-31757753D01*
X121454957Y-31732208D01*
X121406287Y-31724500D01*
X121193713Y-31724500D01*
X121145042Y-31732208D01*
X120983760Y-31757753D01*
X120781585Y-31823444D01*
X120592179Y-31919951D01*
X120420213Y-32044890D01*
X120269894Y-32195209D01*
X120269890Y-32195214D01*
X120150008Y-32360218D01*
X120094678Y-32402884D01*
X120025065Y-32408863D01*
X119963270Y-32376257D01*
X119949372Y-32360218D01*
X119829727Y-32195540D01*
X119829723Y-32195535D01*
X119679464Y-32045276D01*
X119679459Y-32045272D01*
X119507557Y-31920379D01*
X119318215Y-31823903D01*
X119116124Y-31758241D01*
X119050000Y-31747768D01*
X119050000Y-32795854D01*
X118983343Y-32757370D01*
X118862535Y-32725000D01*
X118737465Y-32725000D01*
X118616657Y-32757370D01*
X118550000Y-32795854D01*
X118550000Y-31747768D01*
X118549999Y-31747768D01*
X118483875Y-31758241D01*
X118281784Y-31823903D01*
X118092442Y-31920379D01*
X117920540Y-32045272D01*
X117920535Y-32045276D01*
X117770276Y-32195535D01*
X117770272Y-32195540D01*
X117650627Y-32360218D01*
X117595297Y-32402884D01*
X117525684Y-32408863D01*
X117463889Y-32376257D01*
X117449991Y-32360218D01*
X117330109Y-32195214D01*
X117330105Y-32195209D01*
X117179786Y-32044890D01*
X117007820Y-31919951D01*
X116818414Y-31823444D01*
X116818413Y-31823443D01*
X116818412Y-31823443D01*
X116616243Y-31757754D01*
X116616241Y-31757753D01*
X116616240Y-31757753D01*
X116454957Y-31732208D01*
X116406287Y-31724500D01*
X116193713Y-31724500D01*
X116145042Y-31732208D01*
X115983760Y-31757753D01*
X115781585Y-31823444D01*
X115592179Y-31919951D01*
X115420213Y-32044890D01*
X115269890Y-32195213D01*
X115144951Y-32367179D01*
X115048444Y-32556585D01*
X114982753Y-32758760D01*
X114974360Y-32811753D01*
X114949500Y-32968713D01*
X114949500Y-33431287D01*
X114982754Y-33641243D01*
X114993722Y-33675000D01*
X115048444Y-33843414D01*
X115144951Y-34032820D01*
X115269890Y-34204786D01*
X115269896Y-34204792D01*
X115420208Y-34355104D01*
X115498384Y-34411902D01*
X115541051Y-34467231D01*
X115549500Y-34512220D01*
X115549500Y-36617918D01*
X115549500Y-36617920D01*
X115549499Y-36617920D01*
X115578340Y-36762907D01*
X115578343Y-36762917D01*
X115634913Y-36899490D01*
X115634916Y-36899495D01*
X115650257Y-36922456D01*
X115717046Y-37022414D01*
X115717052Y-37022421D01*
X119736181Y-41041549D01*
X119769666Y-41102872D01*
X119772500Y-41129230D01*
X119772500Y-48206918D01*
X119772500Y-48206920D01*
X119772499Y-48206920D01*
X119801340Y-48351907D01*
X119801343Y-48351917D01*
X119857914Y-48488492D01*
X119890812Y-48537727D01*
X119890813Y-48537730D01*
X119940046Y-48611414D01*
X119940052Y-48611421D01*
X139933181Y-68604549D01*
X139966666Y-68665872D01*
X139969500Y-68692230D01*
X139969500Y-86402217D01*
X139949815Y-86469256D01*
X139933181Y-86489898D01*
X138924373Y-87498706D01*
X138046221Y-88376858D01*
X138046218Y-88376861D01*
X138002481Y-88420598D01*
X137906859Y-88516219D01*
X137797371Y-88680079D01*
X137797366Y-88680088D01*
X137754248Y-88784187D01*
X137710407Y-88838590D01*
X137644113Y-88860655D01*
X137576414Y-88843376D01*
X137552006Y-88824415D01*
X131335928Y-82608338D01*
X131335925Y-82608334D01*
X131335925Y-82608335D01*
X131328858Y-82601268D01*
X131328858Y-82601267D01*
X131241733Y-82514142D01*
X131241732Y-82514141D01*
X131241731Y-82514140D01*
X131190509Y-82479915D01*
X131142469Y-82447815D01*
X131139286Y-82445688D01*
X131045089Y-82406671D01*
X131045087Y-82406669D01*
X131025456Y-82398538D01*
X131025452Y-82398537D01*
X130922982Y-82378155D01*
X130904607Y-82374500D01*
X130904606Y-82374500D01*
X111897981Y-82374500D01*
X111830942Y-82354815D01*
X111787497Y-82306797D01*
X111780049Y-82292180D01*
X111655109Y-82120213D01*
X111504790Y-81969894D01*
X111504785Y-81969890D01*
X111339781Y-81850008D01*
X111297115Y-81794678D01*
X111291136Y-81725065D01*
X111323741Y-81663270D01*
X111339781Y-81649371D01*
X111504466Y-81529721D01*
X111654723Y-81379464D01*
X111654727Y-81379459D01*
X111779620Y-81207557D01*
X111876095Y-81018217D01*
X111941757Y-80816129D01*
X111941757Y-80816126D01*
X111952231Y-80750000D01*
X110904146Y-80750000D01*
X110942630Y-80683343D01*
X110975000Y-80562535D01*
X110975000Y-80437465D01*
X110942630Y-80316657D01*
X110904146Y-80250000D01*
X111952231Y-80250000D01*
X111941757Y-80183873D01*
X111941757Y-80183870D01*
X111876095Y-79981782D01*
X111779620Y-79792442D01*
X111654727Y-79620540D01*
X111654723Y-79620535D01*
X111504464Y-79470276D01*
X111504459Y-79470272D01*
X111339781Y-79350627D01*
X111297115Y-79295297D01*
X111291136Y-79225684D01*
X111323741Y-79163889D01*
X111339776Y-79149994D01*
X111504792Y-79030104D01*
X111655104Y-78879792D01*
X111655106Y-78879788D01*
X111655109Y-78879786D01*
X111780048Y-78707820D01*
X111780047Y-78707820D01*
X111780051Y-78707816D01*
X111876557Y-78518412D01*
X111942246Y-78316243D01*
X111975500Y-78106287D01*
X111975500Y-77893713D01*
X111942246Y-77683757D01*
X111876557Y-77481588D01*
X111780051Y-77292184D01*
X111780049Y-77292181D01*
X111780048Y-77292179D01*
X111655109Y-77120213D01*
X111516294Y-76981398D01*
X111482809Y-76920075D01*
X111487793Y-76850383D01*
X111529665Y-76794450D01*
X111538879Y-76788178D01*
X111544331Y-76784814D01*
X111544334Y-76784814D01*
X111693656Y-76692712D01*
X111817712Y-76568656D01*
X111909814Y-76419334D01*
X111964999Y-76252797D01*
X111975500Y-76150009D01*
X111975499Y-74849992D01*
X111964999Y-74747203D01*
X111909814Y-74580666D01*
X111817712Y-74431344D01*
X111693656Y-74307288D01*
X111544334Y-74215186D01*
X111377797Y-74160001D01*
X111377795Y-74160000D01*
X111275010Y-74149500D01*
X109724998Y-74149500D01*
X109724981Y-74149501D01*
X109622203Y-74160000D01*
X109622200Y-74160001D01*
X109455668Y-74215185D01*
X109455663Y-74215187D01*
X109306342Y-74307289D01*
X109182289Y-74431342D01*
X109090187Y-74580663D01*
X109090186Y-74580666D01*
X109035001Y-74747203D01*
X109035001Y-74747204D01*
X109035000Y-74747204D01*
X109024500Y-74849983D01*
X109024500Y-76150001D01*
X109024501Y-76150018D01*
X109035000Y-76252796D01*
X109035001Y-76252799D01*
X109060075Y-76328465D01*
X109090186Y-76419334D01*
X109182288Y-76568656D01*
X109306344Y-76692712D01*
X109396700Y-76748444D01*
X109461120Y-76788178D01*
X109507845Y-76840126D01*
X109519068Y-76909088D01*
X109491224Y-76973171D01*
X109483706Y-76981398D01*
X109344889Y-77120215D01*
X109219951Y-77292179D01*
X109123444Y-77481585D01*
X109057753Y-77683760D01*
X109024500Y-77893713D01*
X109024500Y-78106286D01*
X109045776Y-78240621D01*
X109057754Y-78316243D01*
X109083936Y-78396824D01*
X109123444Y-78518414D01*
X109219951Y-78707820D01*
X109344890Y-78879786D01*
X109495209Y-79030105D01*
X109495214Y-79030109D01*
X109660218Y-79149991D01*
X109702884Y-79205320D01*
X109708863Y-79274934D01*
X109676258Y-79336729D01*
X109660218Y-79350627D01*
X109495540Y-79470272D01*
X109495535Y-79470276D01*
X109345276Y-79620535D01*
X109345272Y-79620540D01*
X109220379Y-79792442D01*
X109123904Y-79981782D01*
X109058242Y-80183870D01*
X109058242Y-80183873D01*
X109047769Y-80250000D01*
X110095854Y-80250000D01*
X110057370Y-80316657D01*
X110025000Y-80437465D01*
X110025000Y-80562535D01*
X110057370Y-80683343D01*
X110095854Y-80750000D01*
X109047769Y-80750000D01*
X109058242Y-80816126D01*
X109058242Y-80816129D01*
X109123904Y-81018217D01*
X109220379Y-81207557D01*
X109345272Y-81379459D01*
X109345276Y-81379464D01*
X109495535Y-81529723D01*
X109495540Y-81529727D01*
X109660218Y-81649372D01*
X109702884Y-81704701D01*
X109708863Y-81774315D01*
X109676258Y-81836110D01*
X109660218Y-81850008D01*
X109495214Y-81969890D01*
X109495209Y-81969894D01*
X109344890Y-82120213D01*
X109219951Y-82292179D01*
X109123444Y-82481585D01*
X109057753Y-82683760D01*
X109051052Y-82726070D01*
X109024500Y-82893713D01*
X109024500Y-83106287D01*
X109057754Y-83316243D01*
X109109930Y-83476824D01*
X109123444Y-83518414D01*
X109219951Y-83707820D01*
X109344890Y-83879786D01*
X109495213Y-84030109D01*
X109667179Y-84155048D01*
X109667181Y-84155049D01*
X109667184Y-84155051D01*
X109856588Y-84251557D01*
X110058757Y-84317246D01*
X110268713Y-84350500D01*
X110268714Y-84350500D01*
X110731286Y-84350500D01*
X110731287Y-84350500D01*
X110941243Y-84317246D01*
X111143412Y-84251557D01*
X111332816Y-84155051D01*
X111354789Y-84139086D01*
X111504786Y-84030109D01*
X111504788Y-84030106D01*
X111504792Y-84030104D01*
X111655104Y-83879792D01*
X111655106Y-83879788D01*
X111655109Y-83879786D01*
X111780049Y-83707819D01*
X111787497Y-83693203D01*
X111835473Y-83642408D01*
X111897981Y-83625500D01*
X130532548Y-83625500D01*
X130599587Y-83645185D01*
X130620229Y-83661819D01*
X137145593Y-90187184D01*
X137179078Y-90248507D01*
X137174094Y-90318199D01*
X137165299Y-90336865D01*
X137084361Y-90477054D01*
X136987416Y-90724067D01*
X136987410Y-90724086D01*
X136928364Y-90982785D01*
X136928363Y-90982790D01*
X136908535Y-91247395D01*
X136908535Y-91247404D01*
X136928363Y-91512009D01*
X136928364Y-91512014D01*
X136987410Y-91770713D01*
X136987412Y-91770722D01*
X136987414Y-91770727D01*
X137084361Y-92017745D01*
X137217042Y-92247555D01*
X137382492Y-92455023D01*
X137577016Y-92635514D01*
X137796268Y-92784998D01*
X138035350Y-92900134D01*
X138288922Y-92978350D01*
X138288923Y-92978350D01*
X138288926Y-92978351D01*
X138551311Y-93017899D01*
X138551316Y-93017899D01*
X138551319Y-93017900D01*
X138551320Y-93017900D01*
X138816680Y-93017900D01*
X138816681Y-93017900D01*
X138816688Y-93017899D01*
X139079073Y-92978351D01*
X139079074Y-92978350D01*
X139079078Y-92978350D01*
X139332650Y-92900134D01*
X139571733Y-92784998D01*
X139790984Y-92635514D01*
X139985508Y-92455023D01*
X140150958Y-92247555D01*
X140283639Y-92017745D01*
X140380586Y-91770727D01*
X140439635Y-91512019D01*
X140440099Y-91505826D01*
X140459465Y-91247404D01*
X140459465Y-91247395D01*
X140439636Y-90982790D01*
X140439635Y-90982785D01*
X140439635Y-90982781D01*
X140380586Y-90724073D01*
X140309181Y-90542135D01*
X148509500Y-90542135D01*
X148509500Y-92337870D01*
X148509501Y-92337876D01*
X148515908Y-92397483D01*
X148566202Y-92532328D01*
X148566206Y-92532335D01*
X148652452Y-92647544D01*
X148652455Y-92647547D01*
X148767664Y-92733793D01*
X148767671Y-92733797D01*
X148902517Y-92784091D01*
X148902516Y-92784091D01*
X148909444Y-92784835D01*
X148962127Y-92790500D01*
X150757872Y-92790499D01*
X150817483Y-92784091D01*
X150952331Y-92733796D01*
X151067546Y-92647546D01*
X151153796Y-92532331D01*
X151203002Y-92400401D01*
X151244872Y-92344468D01*
X151310337Y-92320050D01*
X151378610Y-92334901D01*
X151406865Y-92356053D01*
X151528917Y-92478105D01*
X151722421Y-92613600D01*
X151936507Y-92713429D01*
X151936516Y-92713433D01*
X152150000Y-92770634D01*
X152150000Y-91873012D01*
X152207007Y-91905925D01*
X152334174Y-91940000D01*
X152465826Y-91940000D01*
X152592993Y-91905925D01*
X152650000Y-91873012D01*
X152650000Y-92770633D01*
X152863483Y-92713433D01*
X152863492Y-92713429D01*
X153077578Y-92613600D01*
X153271082Y-92478105D01*
X153438105Y-92311082D01*
X153573600Y-92117578D01*
X153673429Y-91903492D01*
X153673432Y-91903486D01*
X153730636Y-91690000D01*
X152833012Y-91690000D01*
X152865925Y-91632993D01*
X152900000Y-91505826D01*
X152900000Y-91374174D01*
X152865925Y-91247007D01*
X152833012Y-91190000D01*
X153730636Y-91190000D01*
X153730635Y-91189999D01*
X153673432Y-90976513D01*
X153673429Y-90976507D01*
X153573600Y-90762422D01*
X153573599Y-90762420D01*
X153438113Y-90568926D01*
X153438108Y-90568920D01*
X153271082Y-90401894D01*
X153077578Y-90266399D01*
X152863492Y-90166570D01*
X152863486Y-90166567D01*
X152650000Y-90109364D01*
X152650000Y-91006988D01*
X152592993Y-90974075D01*
X152465826Y-90940000D01*
X152334174Y-90940000D01*
X152207007Y-90974075D01*
X152150000Y-91006988D01*
X152150000Y-90109364D01*
X152149999Y-90109364D01*
X151936513Y-90166567D01*
X151936507Y-90166570D01*
X151722422Y-90266399D01*
X151722420Y-90266400D01*
X151528926Y-90401886D01*
X151406865Y-90523947D01*
X151345542Y-90557431D01*
X151275850Y-90552447D01*
X151219917Y-90510575D01*
X151203002Y-90479598D01*
X151153797Y-90347671D01*
X151153793Y-90347664D01*
X151067547Y-90232455D01*
X151067544Y-90232452D01*
X150952335Y-90146206D01*
X150952328Y-90146202D01*
X150817482Y-90095908D01*
X150817483Y-90095908D01*
X150757883Y-90089501D01*
X150757881Y-90089500D01*
X150757873Y-90089500D01*
X150757864Y-90089500D01*
X148962129Y-90089500D01*
X148962123Y-90089501D01*
X148902516Y-90095908D01*
X148767671Y-90146202D01*
X148767664Y-90146206D01*
X148652455Y-90232452D01*
X148652452Y-90232455D01*
X148566206Y-90347664D01*
X148566202Y-90347671D01*
X148515908Y-90482517D01*
X148509501Y-90542116D01*
X148509500Y-90542135D01*
X140309181Y-90542135D01*
X140283639Y-90477055D01*
X140150958Y-90247245D01*
X139985508Y-90039777D01*
X139790984Y-89859286D01*
X139775288Y-89848584D01*
X139738646Y-89823601D01*
X139694345Y-89769571D01*
X139684500Y-89721149D01*
X139684500Y-89619781D01*
X139704185Y-89552742D01*
X139720814Y-89532105D01*
X141600713Y-87652205D01*
X141600720Y-87652200D01*
X141607780Y-87645140D01*
X141607782Y-87645139D01*
X141747139Y-87505782D01*
X141747140Y-87505780D01*
X141754200Y-87498720D01*
X141754205Y-87498713D01*
X142509139Y-86743781D01*
X150216101Y-79036819D01*
X150277424Y-79003334D01*
X150303782Y-79000500D01*
X150414800Y-79000500D01*
X150481839Y-79020185D01*
X150494366Y-79029493D01*
X150660218Y-79149991D01*
X150702884Y-79205320D01*
X150708863Y-79274934D01*
X150676258Y-79336729D01*
X150660218Y-79350627D01*
X150495540Y-79470272D01*
X150495535Y-79470276D01*
X150345276Y-79620535D01*
X150345272Y-79620540D01*
X150220379Y-79792442D01*
X150123904Y-79981782D01*
X150058242Y-80183870D01*
X150058242Y-80183873D01*
X150047769Y-80250000D01*
X151095854Y-80250000D01*
X151057370Y-80316657D01*
X151025000Y-80437465D01*
X151025000Y-80562535D01*
X151057370Y-80683343D01*
X151095854Y-80750000D01*
X150047769Y-80750000D01*
X150058242Y-80816126D01*
X150058242Y-80816129D01*
X150123904Y-81018217D01*
X150220379Y-81207557D01*
X150345272Y-81379459D01*
X150345276Y-81379464D01*
X150495535Y-81529723D01*
X150495540Y-81529727D01*
X150660218Y-81649372D01*
X150702884Y-81704701D01*
X150708863Y-81774315D01*
X150676258Y-81836110D01*
X150660218Y-81850008D01*
X150495214Y-81969890D01*
X150495209Y-81969894D01*
X150344890Y-82120213D01*
X150219951Y-82292179D01*
X150123444Y-82481585D01*
X150057753Y-82683760D01*
X150051052Y-82726070D01*
X150024500Y-82893713D01*
X150024500Y-83106287D01*
X150057754Y-83316243D01*
X150109930Y-83476824D01*
X150123444Y-83518414D01*
X150219951Y-83707820D01*
X150344890Y-83879786D01*
X150483705Y-84018601D01*
X150517190Y-84079924D01*
X150512206Y-84149616D01*
X150470334Y-84205549D01*
X150461121Y-84211821D01*
X150306342Y-84307289D01*
X150182289Y-84431342D01*
X150090187Y-84580663D01*
X150090185Y-84580668D01*
X150079619Y-84612554D01*
X150035001Y-84747203D01*
X150035001Y-84747204D01*
X150035000Y-84747204D01*
X150024500Y-84849983D01*
X150024500Y-86150001D01*
X150024501Y-86150018D01*
X150035000Y-86252796D01*
X150035001Y-86252799D01*
X150084514Y-86402217D01*
X150090186Y-86419334D01*
X150182288Y-86568656D01*
X150306344Y-86692712D01*
X150455666Y-86784814D01*
X150622203Y-86839999D01*
X150724991Y-86850500D01*
X152275008Y-86850499D01*
X152377797Y-86839999D01*
X152544334Y-86784814D01*
X152693656Y-86692712D01*
X152817712Y-86568656D01*
X152909814Y-86419334D01*
X152964999Y-86252797D01*
X152975500Y-86150009D01*
X152975499Y-84849992D01*
X152964999Y-84747203D01*
X152909814Y-84580666D01*
X152817712Y-84431344D01*
X152693656Y-84307288D01*
X152544334Y-84215186D01*
X152544333Y-84215185D01*
X152538878Y-84211821D01*
X152492154Y-84159873D01*
X152480931Y-84090910D01*
X152508775Y-84026828D01*
X152516272Y-84018623D01*
X152655104Y-83879792D01*
X152780051Y-83707816D01*
X152876557Y-83518412D01*
X152942246Y-83316243D01*
X152975500Y-83106287D01*
X152975500Y-82893713D01*
X152942246Y-82683757D01*
X152906522Y-82573814D01*
X152904528Y-82503974D01*
X152936770Y-82447820D01*
X153285858Y-82098733D01*
X153354312Y-81996285D01*
X153401463Y-81882451D01*
X153403475Y-81872340D01*
X153403476Y-81872337D01*
X153408923Y-81844952D01*
X153408923Y-81844949D01*
X153425501Y-81761606D01*
X153425501Y-81638393D01*
X153425501Y-81633283D01*
X153425500Y-81633257D01*
X153425500Y-70367741D01*
X153425501Y-70367720D01*
X153425501Y-70238391D01*
X153401464Y-70117555D01*
X153401463Y-70117549D01*
X153354312Y-70003715D01*
X153285858Y-69901267D01*
X153285855Y-69901263D01*
X152936773Y-69552182D01*
X152903288Y-69490859D01*
X152906522Y-69426185D01*
X152942246Y-69316243D01*
X152975500Y-69106287D01*
X152975500Y-68893713D01*
X152942246Y-68683757D01*
X152876557Y-68481588D01*
X152780051Y-68292184D01*
X152780049Y-68292181D01*
X152780048Y-68292179D01*
X152655109Y-68120213D01*
X152504790Y-67969894D01*
X152504785Y-67969890D01*
X152339781Y-67850008D01*
X152297115Y-67794678D01*
X152291136Y-67725065D01*
X152323741Y-67663270D01*
X152339781Y-67649371D01*
X152504466Y-67529721D01*
X152654723Y-67379464D01*
X152654727Y-67379459D01*
X152779620Y-67207557D01*
X152876095Y-67018217D01*
X152941757Y-66816129D01*
X152941757Y-66816126D01*
X152952231Y-66750000D01*
X151904146Y-66750000D01*
X151942630Y-66683343D01*
X151975000Y-66562535D01*
X151975000Y-66437465D01*
X151942630Y-66316657D01*
X151904146Y-66250000D01*
X152952231Y-66250000D01*
X152941757Y-66183873D01*
X152941757Y-66183870D01*
X152876095Y-65981782D01*
X152779620Y-65792442D01*
X152654727Y-65620540D01*
X152654723Y-65620535D01*
X152504464Y-65470276D01*
X152504459Y-65470272D01*
X152332557Y-65345379D01*
X152143217Y-65248904D01*
X151941128Y-65183242D01*
X151750000Y-65152969D01*
X151750000Y-66095854D01*
X151683343Y-66057370D01*
X151562535Y-66025000D01*
X151437465Y-66025000D01*
X151316657Y-66057370D01*
X151250000Y-66095854D01*
X151250000Y-65152969D01*
X151058872Y-65183242D01*
X151058869Y-65183242D01*
X150856782Y-65248904D01*
X150667442Y-65345379D01*
X150495540Y-65470272D01*
X150495535Y-65470276D01*
X150345276Y-65620535D01*
X150345272Y-65620540D01*
X150220379Y-65792442D01*
X150123904Y-65981782D01*
X150058242Y-66183870D01*
X150058242Y-66183873D01*
X150047769Y-66250000D01*
X151095854Y-66250000D01*
X151057370Y-66316657D01*
X151025000Y-66437465D01*
X151025000Y-66562535D01*
X151057370Y-66683343D01*
X151095854Y-66750000D01*
X150047769Y-66750000D01*
X150058242Y-66816126D01*
X150058242Y-66816129D01*
X150123904Y-67018217D01*
X150220379Y-67207557D01*
X150345272Y-67379459D01*
X150345276Y-67379464D01*
X150495535Y-67529723D01*
X150495540Y-67529727D01*
X150660218Y-67649372D01*
X150702884Y-67704701D01*
X150708863Y-67774315D01*
X150676258Y-67836110D01*
X150660218Y-67850008D01*
X150495214Y-67969890D01*
X150495209Y-67969894D01*
X150344890Y-68120213D01*
X150219951Y-68292179D01*
X150123444Y-68481585D01*
X150057753Y-68683760D01*
X150024500Y-68893713D01*
X150024500Y-69106286D01*
X150055369Y-69301189D01*
X150057754Y-69316243D01*
X150116957Y-69498451D01*
X150123444Y-69518414D01*
X150219951Y-69707820D01*
X150344890Y-69879786D01*
X150483705Y-70018601D01*
X150517190Y-70079924D01*
X150512206Y-70149616D01*
X150470334Y-70205549D01*
X150461121Y-70211821D01*
X150306342Y-70307289D01*
X150182289Y-70431342D01*
X150090187Y-70580663D01*
X150090185Y-70580668D01*
X150076946Y-70620621D01*
X150035001Y-70747203D01*
X150035001Y-70747204D01*
X150035000Y-70747204D01*
X150024500Y-70849983D01*
X150024500Y-72150001D01*
X150024501Y-72150018D01*
X150035000Y-72252796D01*
X150035001Y-72252799D01*
X150065884Y-72345997D01*
X150090186Y-72419334D01*
X150182288Y-72568656D01*
X150306344Y-72692712D01*
X150455666Y-72784814D01*
X150622203Y-72839999D01*
X150724991Y-72850500D01*
X152050500Y-72850499D01*
X152117539Y-72870184D01*
X152163294Y-72922987D01*
X152174500Y-72974499D01*
X152174500Y-76587872D01*
X152154815Y-76654911D01*
X152102011Y-76700666D01*
X152032853Y-76710610D01*
X152012183Y-76705803D01*
X151941244Y-76682754D01*
X151941240Y-76682753D01*
X151765450Y-76654911D01*
X151731287Y-76649500D01*
X151268713Y-76649500D01*
X151234550Y-76654911D01*
X151058760Y-76682753D01*
X150856585Y-76748444D01*
X150667179Y-76844951D01*
X150491266Y-76972759D01*
X150490635Y-76971891D01*
X150431581Y-76998359D01*
X150414800Y-76999500D01*
X149739455Y-76999500D01*
X149642812Y-77018724D01*
X149546167Y-77037947D01*
X149546161Y-77037949D01*
X149492834Y-77060037D01*
X149492834Y-77060038D01*
X149462879Y-77072446D01*
X149364089Y-77113366D01*
X149364079Y-77113371D01*
X149200219Y-77222859D01*
X149130900Y-77292179D01*
X149060861Y-77362218D01*
X142182181Y-84240898D01*
X142120858Y-84274383D01*
X142051166Y-84269399D01*
X141995233Y-84227527D01*
X141970816Y-84162063D01*
X141970500Y-84153217D01*
X141970500Y-63914314D01*
X141990185Y-63847275D01*
X142042989Y-63801520D01*
X142112147Y-63791576D01*
X142175703Y-63820601D01*
X142213477Y-63879379D01*
X142214275Y-63882221D01*
X142236094Y-63963655D01*
X142236096Y-63963659D01*
X142236097Y-63963663D01*
X142311563Y-64125500D01*
X142335965Y-64177830D01*
X142335967Y-64177834D01*
X142416454Y-64292780D01*
X142471505Y-64371401D01*
X142638599Y-64538495D01*
X142735384Y-64606265D01*
X142832165Y-64674032D01*
X142832167Y-64674033D01*
X142832170Y-64674035D01*
X143046337Y-64773903D01*
X143274592Y-64835063D01*
X143462918Y-64851539D01*
X143509999Y-64855659D01*
X143510000Y-64855659D01*
X143510001Y-64855659D01*
X143549234Y-64852226D01*
X143745408Y-64835063D01*
X143973663Y-64773903D01*
X144187830Y-64674035D01*
X144381401Y-64538495D01*
X144548495Y-64371401D01*
X144683652Y-64178377D01*
X144738229Y-64134752D01*
X144785227Y-64125500D01*
X152724107Y-64125500D01*
X152784529Y-64113481D01*
X152844952Y-64101463D01*
X152889238Y-64083119D01*
X152958786Y-64054312D01*
X153010009Y-64020084D01*
X153061233Y-63985858D01*
X153148358Y-63898733D01*
X153148359Y-63898731D01*
X153155425Y-63891665D01*
X153155427Y-63891661D01*
X154398357Y-62648733D01*
X154567272Y-62479816D01*
X154628594Y-62446333D01*
X154654952Y-62443499D01*
X154905170Y-62443499D01*
X154905176Y-62443499D01*
X155006253Y-62433174D01*
X155170016Y-62378908D01*
X155316850Y-62288340D01*
X155438840Y-62166350D01*
X155529408Y-62019516D01*
X155583674Y-61855753D01*
X155594000Y-61754677D01*
X155593999Y-61504450D01*
X155613683Y-61437412D01*
X155630313Y-61416775D01*
X156460144Y-60586945D01*
X156521463Y-60553463D01*
X156591155Y-60558447D01*
X156635502Y-60586948D01*
X156665378Y-60616824D01*
X156665384Y-60616829D01*
X156846333Y-60743531D01*
X156846335Y-60743532D01*
X156846338Y-60743534D01*
X156903020Y-60769965D01*
X156975189Y-60803618D01*
X157027628Y-60849790D01*
X157046780Y-60916984D01*
X157026564Y-60983865D01*
X156975189Y-61028382D01*
X156846340Y-61088465D01*
X156846338Y-61088466D01*
X156665377Y-61215175D01*
X156509175Y-61371377D01*
X156382466Y-61552338D01*
X156382465Y-61552340D01*
X156289107Y-61752548D01*
X156289104Y-61752554D01*
X156231930Y-61965929D01*
X156231929Y-61965937D01*
X156212677Y-62185997D01*
X156212677Y-62186002D01*
X156231929Y-62406062D01*
X156231930Y-62406070D01*
X156289104Y-62619445D01*
X156289105Y-62619447D01*
X156289106Y-62619450D01*
X156333749Y-62715187D01*
X156382466Y-62819662D01*
X156382468Y-62819666D01*
X156509170Y-63000615D01*
X156509175Y-63000621D01*
X156665378Y-63156824D01*
X156665384Y-63156829D01*
X156846333Y-63283531D01*
X156846335Y-63283532D01*
X156846338Y-63283534D01*
X156965748Y-63339215D01*
X156975189Y-63343618D01*
X157027628Y-63389790D01*
X157046780Y-63456984D01*
X157026564Y-63523865D01*
X156975189Y-63568382D01*
X156846340Y-63628465D01*
X156846338Y-63628466D01*
X156665377Y-63755175D01*
X156509175Y-63911377D01*
X156382466Y-64092338D01*
X156382465Y-64092340D01*
X156289107Y-64292548D01*
X156289104Y-64292554D01*
X156231930Y-64505929D01*
X156231929Y-64505937D01*
X156212677Y-64725997D01*
X156212677Y-64726002D01*
X156231929Y-64946062D01*
X156231930Y-64946070D01*
X156289104Y-65159445D01*
X156289105Y-65159447D01*
X156289106Y-65159450D01*
X156322382Y-65230811D01*
X156382466Y-65359662D01*
X156382468Y-65359666D01*
X156509170Y-65540615D01*
X156509175Y-65540621D01*
X156665378Y-65696824D01*
X156665384Y-65696829D01*
X156846333Y-65823531D01*
X156846335Y-65823532D01*
X156846338Y-65823534D01*
X156975189Y-65883618D01*
X156975781Y-65883894D01*
X157028220Y-65930066D01*
X157047372Y-65997260D01*
X157027156Y-66064141D01*
X156975781Y-66108658D01*
X156846590Y-66168901D01*
X156781811Y-66214258D01*
X157344058Y-66776504D01*
X157283919Y-66792619D01*
X157168080Y-66859498D01*
X157073498Y-66954080D01*
X157006619Y-67069919D01*
X156990504Y-67130057D01*
X156428258Y-66567811D01*
X156382901Y-66632590D01*
X156289579Y-66832720D01*
X156289575Y-66832729D01*
X156232426Y-67046013D01*
X156232424Y-67046023D01*
X156213179Y-67265999D01*
X156213179Y-67266000D01*
X156232424Y-67485976D01*
X156232426Y-67485986D01*
X156289575Y-67699270D01*
X156289580Y-67699284D01*
X156382898Y-67899405D01*
X156382901Y-67899411D01*
X156428258Y-67964187D01*
X156428258Y-67964188D01*
X156990504Y-67401941D01*
X157006619Y-67462081D01*
X157073498Y-67577920D01*
X157168080Y-67672502D01*
X157283919Y-67739381D01*
X157344057Y-67755494D01*
X156781810Y-68317740D01*
X156846589Y-68363098D01*
X156975781Y-68423342D01*
X157028220Y-68469514D01*
X157047372Y-68536708D01*
X157027156Y-68603589D01*
X156975781Y-68648106D01*
X156846340Y-68708465D01*
X156846338Y-68708466D01*
X156665377Y-68835175D01*
X156509175Y-68991377D01*
X156382466Y-69172338D01*
X156382465Y-69172340D01*
X156289107Y-69372548D01*
X156289104Y-69372554D01*
X156231930Y-69585929D01*
X156231929Y-69585937D01*
X156212677Y-69805997D01*
X156212677Y-69806002D01*
X156231929Y-70026062D01*
X156231930Y-70026070D01*
X156289104Y-70239445D01*
X156289105Y-70239447D01*
X156289106Y-70239450D01*
X156320740Y-70307289D01*
X156382466Y-70439662D01*
X156382468Y-70439666D01*
X156509170Y-70620615D01*
X156509175Y-70620621D01*
X156665378Y-70776824D01*
X156665384Y-70776829D01*
X156846333Y-70903531D01*
X156846335Y-70903532D01*
X156846338Y-70903534D01*
X156965748Y-70959215D01*
X156975189Y-70963618D01*
X157027628Y-71009790D01*
X157046780Y-71076984D01*
X157026564Y-71143865D01*
X156975189Y-71188382D01*
X156846340Y-71248465D01*
X156846338Y-71248466D01*
X156665377Y-71375175D01*
X156509175Y-71531377D01*
X156382466Y-71712338D01*
X156382465Y-71712340D01*
X156289107Y-71912548D01*
X156289104Y-71912554D01*
X156231930Y-72125929D01*
X156231929Y-72125937D01*
X156212677Y-72345997D01*
X156212677Y-72346002D01*
X156231929Y-72566062D01*
X156231930Y-72566070D01*
X156289104Y-72779445D01*
X156289105Y-72779447D01*
X156289106Y-72779450D01*
X156322106Y-72850219D01*
X156382466Y-72979662D01*
X156382468Y-72979666D01*
X156509170Y-73160615D01*
X156509175Y-73160621D01*
X156665378Y-73316824D01*
X156665384Y-73316829D01*
X156846333Y-73443531D01*
X156846335Y-73443532D01*
X156846338Y-73443534D01*
X156965748Y-73499215D01*
X156975189Y-73503618D01*
X157027628Y-73549790D01*
X157046780Y-73616984D01*
X157026564Y-73683865D01*
X156975189Y-73728382D01*
X156846340Y-73788465D01*
X156846338Y-73788466D01*
X156665377Y-73915175D01*
X156509175Y-74071377D01*
X156382466Y-74252338D01*
X156382465Y-74252340D01*
X156289107Y-74452548D01*
X156289104Y-74452554D01*
X156231930Y-74665929D01*
X156231929Y-74665937D01*
X156212677Y-74885997D01*
X156212677Y-74886002D01*
X156231929Y-75106062D01*
X156231930Y-75106070D01*
X156289104Y-75319445D01*
X156289105Y-75319447D01*
X156289106Y-75319450D01*
X156322382Y-75390811D01*
X156382466Y-75519662D01*
X156382468Y-75519666D01*
X156509170Y-75700615D01*
X156509175Y-75700621D01*
X156665378Y-75856824D01*
X156665384Y-75856829D01*
X156846333Y-75983531D01*
X156846335Y-75983532D01*
X156846338Y-75983534D01*
X156965748Y-76039215D01*
X156975189Y-76043618D01*
X157027628Y-76089790D01*
X157046780Y-76156984D01*
X157026564Y-76223865D01*
X156975189Y-76268382D01*
X156846340Y-76328465D01*
X156846338Y-76328466D01*
X156665377Y-76455175D01*
X156509175Y-76611377D01*
X156382466Y-76792338D01*
X156382465Y-76792340D01*
X156289107Y-76992548D01*
X156289104Y-76992554D01*
X156231930Y-77205929D01*
X156231929Y-77205937D01*
X156212677Y-77425997D01*
X156212677Y-77426002D01*
X156231929Y-77646062D01*
X156231930Y-77646070D01*
X156289104Y-77859445D01*
X156289105Y-77859447D01*
X156289106Y-77859450D01*
X156305083Y-77893713D01*
X156382466Y-78059662D01*
X156382468Y-78059666D01*
X156509170Y-78240615D01*
X156509175Y-78240621D01*
X156665378Y-78396824D01*
X156665384Y-78396829D01*
X156846333Y-78523531D01*
X156846335Y-78523532D01*
X156846338Y-78523534D01*
X156965748Y-78579215D01*
X156975189Y-78583618D01*
X157027628Y-78629790D01*
X157046780Y-78696984D01*
X157026564Y-78763865D01*
X156975189Y-78808382D01*
X156846340Y-78868465D01*
X156846338Y-78868466D01*
X156665377Y-78995175D01*
X156509175Y-79151377D01*
X156382466Y-79332338D01*
X156382465Y-79332340D01*
X156289107Y-79532548D01*
X156289104Y-79532554D01*
X156231930Y-79745929D01*
X156231929Y-79745937D01*
X156212677Y-79965997D01*
X156212677Y-79966002D01*
X156231929Y-80186062D01*
X156231930Y-80186070D01*
X156289104Y-80399445D01*
X156289105Y-80399447D01*
X156289106Y-80399450D01*
X156382464Y-80599658D01*
X156382466Y-80599662D01*
X156382468Y-80599666D01*
X156509170Y-80780615D01*
X156509175Y-80780621D01*
X156665378Y-80936824D01*
X156665384Y-80936829D01*
X156846333Y-81063531D01*
X156846335Y-81063532D01*
X156846338Y-81063534D01*
X156965748Y-81119215D01*
X156975189Y-81123618D01*
X157027628Y-81169790D01*
X157046780Y-81236984D01*
X157026564Y-81303865D01*
X156975189Y-81348382D01*
X156846340Y-81408465D01*
X156846338Y-81408466D01*
X156665377Y-81535175D01*
X156509175Y-81691377D01*
X156436844Y-81794678D01*
X156382466Y-81872339D01*
X156382465Y-81872340D01*
X156289107Y-82072548D01*
X156289104Y-82072554D01*
X156231930Y-82285929D01*
X156231929Y-82285937D01*
X156212677Y-82505997D01*
X156212677Y-82506002D01*
X156231929Y-82726062D01*
X156231930Y-82726070D01*
X156289104Y-82939445D01*
X156289105Y-82939447D01*
X156289106Y-82939450D01*
X156322382Y-83010811D01*
X156382466Y-83139662D01*
X156382468Y-83139666D01*
X156509170Y-83320615D01*
X156509175Y-83320621D01*
X156665378Y-83476824D01*
X156665384Y-83476829D01*
X156846333Y-83603531D01*
X156846335Y-83603532D01*
X156846338Y-83603534D01*
X156971331Y-83661819D01*
X156975781Y-83663894D01*
X157028220Y-83710066D01*
X157047372Y-83777260D01*
X157027156Y-83844141D01*
X156975781Y-83888658D01*
X156846590Y-83948901D01*
X156781811Y-83994258D01*
X157344058Y-84556504D01*
X157283919Y-84572619D01*
X157168080Y-84639498D01*
X157073498Y-84734080D01*
X157006619Y-84849919D01*
X156990504Y-84910057D01*
X156428258Y-84347811D01*
X156382901Y-84412590D01*
X156289579Y-84612720D01*
X156289575Y-84612729D01*
X156232426Y-84826013D01*
X156232424Y-84826023D01*
X156213179Y-85045999D01*
X156213179Y-85046000D01*
X156232424Y-85265976D01*
X156232426Y-85265986D01*
X156289575Y-85479270D01*
X156289580Y-85479284D01*
X156382898Y-85679405D01*
X156382901Y-85679411D01*
X156428258Y-85744187D01*
X156428258Y-85744188D01*
X156990504Y-85181941D01*
X157006619Y-85242081D01*
X157073498Y-85357920D01*
X157168080Y-85452502D01*
X157283919Y-85519381D01*
X157344057Y-85535494D01*
X156781810Y-86097740D01*
X156846590Y-86143099D01*
X156846592Y-86143100D01*
X157046715Y-86236419D01*
X157046729Y-86236424D01*
X157260013Y-86293573D01*
X157260024Y-86293575D01*
X157442581Y-86309547D01*
X157507650Y-86334999D01*
X157548629Y-86391590D01*
X157552507Y-86461352D01*
X157518053Y-86522136D01*
X157476212Y-86548839D01*
X157283735Y-86622724D01*
X156947525Y-86794032D01*
X156631070Y-86999540D01*
X156385750Y-87198197D01*
X157970383Y-88782830D01*
X157854247Y-88867209D01*
X157701209Y-89020247D01*
X157616830Y-89136383D01*
X156032197Y-87551750D01*
X155833540Y-87797070D01*
X155628032Y-88113525D01*
X155456724Y-88449735D01*
X155321499Y-88802007D01*
X155223837Y-89166489D01*
X155223836Y-89166496D01*
X155164808Y-89539179D01*
X155145060Y-89915999D01*
X155145060Y-89916000D01*
X155164808Y-90292820D01*
X155223836Y-90665503D01*
X155223837Y-90665510D01*
X155321499Y-91029992D01*
X155456724Y-91382264D01*
X155628032Y-91718474D01*
X155833536Y-92034923D01*
X156032197Y-92280248D01*
X157616830Y-90695615D01*
X157701209Y-90811753D01*
X157854247Y-90964791D01*
X157970383Y-91049169D01*
X156385750Y-92633801D01*
X156631076Y-92832463D01*
X156947525Y-93037967D01*
X157188641Y-93160822D01*
X157239437Y-93208796D01*
X157256232Y-93276617D01*
X157233695Y-93342752D01*
X157178980Y-93386204D01*
X157132358Y-93395307D01*
X111358898Y-93399774D01*
X111291857Y-93380096D01*
X111246097Y-93327296D01*
X111236146Y-93258139D01*
X111265165Y-93194580D01*
X111302591Y-93165289D01*
X111552474Y-93037967D01*
X111868924Y-92832463D01*
X112114248Y-92633802D01*
X110529615Y-91049169D01*
X110645753Y-90964791D01*
X110798791Y-90811753D01*
X110883169Y-90695616D01*
X112467801Y-92280248D01*
X112666463Y-92034924D01*
X112871967Y-91718474D01*
X113043275Y-91382264D01*
X113104643Y-91222395D01*
X114279037Y-91222395D01*
X114279037Y-91222404D01*
X114298860Y-91486935D01*
X114298861Y-91486940D01*
X114357890Y-91745566D01*
X114357896Y-91745585D01*
X114454814Y-91992528D01*
X114454813Y-91992528D01*
X114587456Y-92222271D01*
X114637641Y-92285203D01*
X115571037Y-91351808D01*
X115588075Y-91415393D01*
X115653901Y-91529407D01*
X115746993Y-91622499D01*
X115861007Y-91688325D01*
X115924591Y-91705362D01*
X114990438Y-92639513D01*
X115166518Y-92759562D01*
X115166526Y-92759567D01*
X115405530Y-92874664D01*
X115405528Y-92874664D01*
X115659025Y-92952858D01*
X115659031Y-92952859D01*
X115921351Y-92992399D01*
X115921358Y-92992400D01*
X116186642Y-92992400D01*
X116186648Y-92992399D01*
X116448968Y-92952859D01*
X116448974Y-92952858D01*
X116702470Y-92874664D01*
X116941474Y-92759567D01*
X116941484Y-92759560D01*
X117117560Y-92639513D01*
X116183408Y-91705362D01*
X116246993Y-91688325D01*
X116361007Y-91622499D01*
X116454099Y-91529407D01*
X116519925Y-91415393D01*
X116536962Y-91351808D01*
X117470357Y-92285203D01*
X117520542Y-92222271D01*
X117653185Y-91992528D01*
X117750103Y-91745585D01*
X117750109Y-91745566D01*
X117809138Y-91486940D01*
X117809139Y-91486935D01*
X117828963Y-91222404D01*
X117828963Y-91222395D01*
X117809139Y-90957864D01*
X117809138Y-90957859D01*
X117750109Y-90699233D01*
X117750103Y-90699214D01*
X117653185Y-90452271D01*
X117653186Y-90452271D01*
X117520543Y-90222528D01*
X117470356Y-90159596D01*
X116536962Y-91092990D01*
X116519925Y-91029407D01*
X116454099Y-90915393D01*
X116361007Y-90822301D01*
X116246993Y-90756475D01*
X116183409Y-90739437D01*
X117117560Y-89805285D01*
X116941475Y-89685233D01*
X116941474Y-89685232D01*
X116702469Y-89570135D01*
X116702471Y-89570135D01*
X116448974Y-89491941D01*
X116448968Y-89491940D01*
X116186648Y-89452400D01*
X115921351Y-89452400D01*
X115659031Y-89491940D01*
X115659025Y-89491941D01*
X115405529Y-89570135D01*
X115166524Y-89685234D01*
X115166511Y-89685241D01*
X114990438Y-89805284D01*
X115924591Y-90739437D01*
X115861007Y-90756475D01*
X115746993Y-90822301D01*
X115653901Y-90915393D01*
X115588075Y-91029407D01*
X115571037Y-91092991D01*
X114637642Y-90159596D01*
X114587457Y-90222527D01*
X114454814Y-90452271D01*
X114357896Y-90699214D01*
X114357890Y-90699233D01*
X114298861Y-90957859D01*
X114298860Y-90957864D01*
X114279037Y-91222395D01*
X113104643Y-91222395D01*
X113178500Y-91029992D01*
X113276162Y-90665510D01*
X113276163Y-90665503D01*
X113335191Y-90292820D01*
X113354940Y-89916000D01*
X113354940Y-89915999D01*
X113335191Y-89539179D01*
X113276163Y-89166496D01*
X113276162Y-89166489D01*
X113178500Y-88802007D01*
X113043275Y-88449735D01*
X112871967Y-88113525D01*
X112666463Y-87797076D01*
X112467801Y-87551750D01*
X110883168Y-89136382D01*
X110798791Y-89020247D01*
X110645753Y-88867209D01*
X110529615Y-88782829D01*
X112114248Y-87198197D01*
X111868923Y-86999536D01*
X111552474Y-86794032D01*
X111216264Y-86622724D01*
X110863992Y-86487499D01*
X110499510Y-86389837D01*
X110499503Y-86389836D01*
X110126820Y-86330808D01*
X109750001Y-86311060D01*
X109749999Y-86311060D01*
X109373179Y-86330808D01*
X109000496Y-86389836D01*
X109000489Y-86389837D01*
X108636007Y-86487499D01*
X108283735Y-86622724D01*
X107947525Y-86794032D01*
X107631070Y-86999540D01*
X107385750Y-87198197D01*
X108970383Y-88782830D01*
X108854247Y-88867209D01*
X108701209Y-89020247D01*
X108616830Y-89136383D01*
X107032197Y-87551750D01*
X106833540Y-87797070D01*
X106628032Y-88113525D01*
X106532662Y-88300698D01*
X106484687Y-88351494D01*
X106416866Y-88368289D01*
X106350731Y-88345751D01*
X106307280Y-88291036D01*
X106298177Y-88244513D01*
X106277134Y-63349983D01*
X109049500Y-63349983D01*
X109049500Y-64650001D01*
X109049501Y-64650018D01*
X109060000Y-64752796D01*
X109060001Y-64752799D01*
X109115185Y-64919331D01*
X109115187Y-64919336D01*
X109207289Y-65068657D01*
X109331344Y-65192712D01*
X109486120Y-65288178D01*
X109532845Y-65340126D01*
X109544068Y-65409088D01*
X109516224Y-65473171D01*
X109508706Y-65481398D01*
X109369889Y-65620215D01*
X109244951Y-65792179D01*
X109148444Y-65981585D01*
X109082753Y-66183760D01*
X109049500Y-66393713D01*
X109049500Y-66606287D01*
X109053666Y-66632587D01*
X109082433Y-66814221D01*
X109082754Y-66816243D01*
X109127540Y-66954080D01*
X109148444Y-67018414D01*
X109244951Y-67207820D01*
X109369890Y-67379786D01*
X109520209Y-67530105D01*
X109520214Y-67530109D01*
X109685218Y-67649991D01*
X109727884Y-67705320D01*
X109733863Y-67774934D01*
X109701258Y-67836729D01*
X109685218Y-67850627D01*
X109520540Y-67970272D01*
X109520535Y-67970276D01*
X109370276Y-68120535D01*
X109370272Y-68120540D01*
X109245379Y-68292442D01*
X109148904Y-68481782D01*
X109083242Y-68683870D01*
X109083242Y-68683873D01*
X109072769Y-68750000D01*
X110120854Y-68750000D01*
X110082370Y-68816657D01*
X110050000Y-68937465D01*
X110050000Y-69062535D01*
X110082370Y-69183343D01*
X110120854Y-69250000D01*
X109072769Y-69250000D01*
X109083242Y-69316126D01*
X109083242Y-69316129D01*
X109148904Y-69518217D01*
X109245379Y-69707557D01*
X109370272Y-69879459D01*
X109370276Y-69879464D01*
X109520535Y-70029723D01*
X109520540Y-70029727D01*
X109692442Y-70154620D01*
X109881782Y-70251095D01*
X110083872Y-70316757D01*
X110275000Y-70347029D01*
X110275000Y-69404145D01*
X110341657Y-69442630D01*
X110462465Y-69475000D01*
X110587535Y-69475000D01*
X110708343Y-69442630D01*
X110775000Y-69404145D01*
X110775000Y-70347028D01*
X110966127Y-70316757D01*
X111168217Y-70251095D01*
X111357557Y-70154620D01*
X111529459Y-70029727D01*
X111529464Y-70029723D01*
X111679723Y-69879464D01*
X111679727Y-69879459D01*
X111804620Y-69707557D01*
X111901095Y-69518217D01*
X111966757Y-69316129D01*
X111966757Y-69316126D01*
X111977231Y-69250000D01*
X110929146Y-69250000D01*
X110967630Y-69183343D01*
X111000000Y-69062535D01*
X111000000Y-68937465D01*
X110967630Y-68816657D01*
X110929146Y-68750000D01*
X111977231Y-68750000D01*
X111966757Y-68683873D01*
X111966757Y-68683870D01*
X111901095Y-68481782D01*
X111804620Y-68292442D01*
X111679727Y-68120540D01*
X111679723Y-68120535D01*
X111529464Y-67970276D01*
X111529459Y-67970272D01*
X111364781Y-67850627D01*
X111322115Y-67795297D01*
X111316136Y-67725684D01*
X111348741Y-67663889D01*
X111364776Y-67649994D01*
X111529792Y-67530104D01*
X111680104Y-67379792D01*
X111680106Y-67379788D01*
X111680109Y-67379786D01*
X111805048Y-67207820D01*
X111805047Y-67207820D01*
X111805051Y-67207816D01*
X111901557Y-67018412D01*
X111967246Y-66816243D01*
X112000500Y-66606287D01*
X112000500Y-66393713D01*
X111967246Y-66183757D01*
X111901557Y-65981588D01*
X111805051Y-65792184D01*
X111805049Y-65792181D01*
X111805048Y-65792179D01*
X111680109Y-65620213D01*
X111541294Y-65481398D01*
X111507809Y-65420075D01*
X111512793Y-65350383D01*
X111554665Y-65294450D01*
X111563879Y-65288178D01*
X111569331Y-65284814D01*
X111569334Y-65284814D01*
X111718656Y-65192712D01*
X111842712Y-65068656D01*
X111934814Y-64919334D01*
X111989999Y-64752797D01*
X112000500Y-64650009D01*
X112000499Y-63349992D01*
X111989999Y-63247203D01*
X111934814Y-63080666D01*
X111842712Y-62931344D01*
X111718656Y-62807288D01*
X111569334Y-62715186D01*
X111402797Y-62660001D01*
X111402795Y-62660000D01*
X111300010Y-62649500D01*
X109749998Y-62649500D01*
X109749981Y-62649501D01*
X109647203Y-62660000D01*
X109647200Y-62660001D01*
X109480668Y-62715185D01*
X109480663Y-62715187D01*
X109331342Y-62807289D01*
X109207289Y-62931342D01*
X109115187Y-63080663D01*
X109115186Y-63080666D01*
X109060001Y-63247203D01*
X109060001Y-63247204D01*
X109060000Y-63247204D01*
X109049500Y-63349983D01*
X106277134Y-63349983D01*
X106267413Y-51849983D01*
X109074500Y-51849983D01*
X109074500Y-53150001D01*
X109074501Y-53150018D01*
X109085000Y-53252796D01*
X109085001Y-53252799D01*
X109100204Y-53298677D01*
X109140186Y-53419334D01*
X109197175Y-53511729D01*
X109232289Y-53568657D01*
X109356344Y-53692712D01*
X109511120Y-53788178D01*
X109557845Y-53840126D01*
X109569068Y-53909088D01*
X109541224Y-53973171D01*
X109533706Y-53981398D01*
X109394889Y-54120215D01*
X109269951Y-54292179D01*
X109173444Y-54481585D01*
X109107753Y-54683760D01*
X109093881Y-54771344D01*
X109074500Y-54893713D01*
X109074500Y-55106287D01*
X109107754Y-55316243D01*
X109168695Y-55503800D01*
X109173444Y-55518414D01*
X109269951Y-55707820D01*
X109394890Y-55879786D01*
X109545209Y-56030105D01*
X109545214Y-56030109D01*
X109710218Y-56149991D01*
X109752884Y-56205320D01*
X109758863Y-56274934D01*
X109726258Y-56336729D01*
X109710218Y-56350627D01*
X109545540Y-56470272D01*
X109545535Y-56470276D01*
X109395276Y-56620535D01*
X109395272Y-56620540D01*
X109270379Y-56792442D01*
X109173904Y-56981782D01*
X109108242Y-57183870D01*
X109108242Y-57183873D01*
X109097769Y-57250000D01*
X110145854Y-57250000D01*
X110107370Y-57316657D01*
X110075000Y-57437465D01*
X110075000Y-57562535D01*
X110107370Y-57683343D01*
X110145854Y-57750000D01*
X109097769Y-57750000D01*
X109108242Y-57816126D01*
X109108242Y-57816129D01*
X109173904Y-58018217D01*
X109270379Y-58207557D01*
X109395272Y-58379459D01*
X109395276Y-58379464D01*
X109545535Y-58529723D01*
X109545540Y-58529727D01*
X109717442Y-58654620D01*
X109906782Y-58751095D01*
X110108872Y-58816757D01*
X110300000Y-58847029D01*
X110300000Y-57904145D01*
X110366657Y-57942630D01*
X110487465Y-57975000D01*
X110612535Y-57975000D01*
X110733343Y-57942630D01*
X110800000Y-57904145D01*
X110800000Y-58847028D01*
X110991127Y-58816757D01*
X111193217Y-58751095D01*
X111382557Y-58654620D01*
X111554459Y-58529727D01*
X111554464Y-58529723D01*
X111704723Y-58379464D01*
X111704727Y-58379459D01*
X111829620Y-58207557D01*
X111926095Y-58018217D01*
X111991757Y-57816129D01*
X111991757Y-57816126D01*
X112002231Y-57750000D01*
X110954146Y-57750000D01*
X110992630Y-57683343D01*
X111025000Y-57562535D01*
X111025000Y-57437465D01*
X110992630Y-57316657D01*
X110954146Y-57250000D01*
X112002231Y-57250000D01*
X111991757Y-57183873D01*
X111991757Y-57183870D01*
X111926095Y-56981782D01*
X111829620Y-56792442D01*
X111704727Y-56620540D01*
X111704723Y-56620535D01*
X111554464Y-56470276D01*
X111554459Y-56470272D01*
X111389781Y-56350627D01*
X111347115Y-56295297D01*
X111341136Y-56225684D01*
X111373741Y-56163889D01*
X111389776Y-56149994D01*
X111554792Y-56030104D01*
X111705104Y-55879792D01*
X111705106Y-55879788D01*
X111705109Y-55879786D01*
X111830048Y-55707820D01*
X111830047Y-55707820D01*
X111830051Y-55707816D01*
X111926557Y-55518412D01*
X111992246Y-55316243D01*
X112025500Y-55106287D01*
X112025500Y-54893713D01*
X111992246Y-54683757D01*
X111926557Y-54481588D01*
X111830051Y-54292184D01*
X111830049Y-54292181D01*
X111830048Y-54292179D01*
X111705109Y-54120213D01*
X111566294Y-53981398D01*
X111532809Y-53920075D01*
X111537793Y-53850383D01*
X111579665Y-53794450D01*
X111588879Y-53788178D01*
X111594331Y-53784814D01*
X111594334Y-53784814D01*
X111743656Y-53692712D01*
X111867712Y-53568656D01*
X111959814Y-53419334D01*
X112014999Y-53252797D01*
X112025500Y-53150009D01*
X112025499Y-51849992D01*
X112025420Y-51849223D01*
X112014999Y-51747203D01*
X112014998Y-51747200D01*
X112005916Y-51719792D01*
X111959814Y-51580666D01*
X111867712Y-51431344D01*
X111743656Y-51307288D01*
X111594334Y-51215186D01*
X111427797Y-51160001D01*
X111427795Y-51160000D01*
X111325010Y-51149500D01*
X109774998Y-51149500D01*
X109774981Y-51149501D01*
X109672203Y-51160000D01*
X109672200Y-51160001D01*
X109505668Y-51215185D01*
X109505663Y-51215187D01*
X109356342Y-51307289D01*
X109232289Y-51431342D01*
X109140187Y-51580663D01*
X109140185Y-51580668D01*
X109127318Y-51619498D01*
X109085001Y-51747203D01*
X109085001Y-51747204D01*
X109085000Y-51747204D01*
X109074500Y-51849983D01*
X106267413Y-51849983D01*
X106257693Y-40349983D01*
X109074500Y-40349983D01*
X109074500Y-41650001D01*
X109074501Y-41650018D01*
X109085000Y-41752796D01*
X109085001Y-41752799D01*
X109109872Y-41827854D01*
X109140186Y-41919334D01*
X109214726Y-42040184D01*
X109232289Y-42068657D01*
X109356344Y-42192712D01*
X109511120Y-42288178D01*
X109557845Y-42340126D01*
X109569068Y-42409088D01*
X109541224Y-42473171D01*
X109533706Y-42481398D01*
X109394889Y-42620215D01*
X109269951Y-42792179D01*
X109173444Y-42981585D01*
X109107753Y-43183760D01*
X109074500Y-43393713D01*
X109074500Y-43606286D01*
X109099872Y-43766482D01*
X109107754Y-43816243D01*
X109170074Y-44008044D01*
X109173444Y-44018414D01*
X109269951Y-44207820D01*
X109394890Y-44379786D01*
X109545209Y-44530105D01*
X109545214Y-44530109D01*
X109710218Y-44649991D01*
X109752884Y-44705320D01*
X109758863Y-44774934D01*
X109726258Y-44836729D01*
X109710218Y-44850627D01*
X109545540Y-44970272D01*
X109545535Y-44970276D01*
X109395276Y-45120535D01*
X109395272Y-45120540D01*
X109270379Y-45292442D01*
X109173904Y-45481782D01*
X109108242Y-45683870D01*
X109108242Y-45683873D01*
X109097769Y-45750000D01*
X110145854Y-45750000D01*
X110107370Y-45816657D01*
X110075000Y-45937465D01*
X110075000Y-46062535D01*
X110107370Y-46183343D01*
X110145854Y-46250000D01*
X109097769Y-46250000D01*
X109108242Y-46316126D01*
X109108242Y-46316129D01*
X109173904Y-46518217D01*
X109270379Y-46707557D01*
X109395272Y-46879459D01*
X109395276Y-46879464D01*
X109545535Y-47029723D01*
X109545540Y-47029727D01*
X109717442Y-47154620D01*
X109906782Y-47251095D01*
X110108872Y-47316757D01*
X110300000Y-47347029D01*
X110300000Y-46404145D01*
X110366657Y-46442630D01*
X110487465Y-46475000D01*
X110612535Y-46475000D01*
X110733343Y-46442630D01*
X110800000Y-46404145D01*
X110800000Y-47347028D01*
X110991127Y-47316757D01*
X111193217Y-47251095D01*
X111382557Y-47154620D01*
X111554459Y-47029727D01*
X111554464Y-47029723D01*
X111704723Y-46879464D01*
X111704727Y-46879459D01*
X111829620Y-46707557D01*
X111926095Y-46518217D01*
X111991757Y-46316129D01*
X111991757Y-46316126D01*
X112002231Y-46250000D01*
X110954146Y-46250000D01*
X110992630Y-46183343D01*
X111025000Y-46062535D01*
X111025000Y-45937465D01*
X110992630Y-45816657D01*
X110954146Y-45750000D01*
X112002231Y-45750000D01*
X111991757Y-45683873D01*
X111991757Y-45683870D01*
X111926095Y-45481782D01*
X111829620Y-45292442D01*
X111704727Y-45120540D01*
X111704723Y-45120535D01*
X111554464Y-44970276D01*
X111554459Y-44970272D01*
X111389781Y-44850627D01*
X111347115Y-44795297D01*
X111341136Y-44725684D01*
X111373741Y-44663889D01*
X111389776Y-44649994D01*
X111554792Y-44530104D01*
X111705104Y-44379792D01*
X111705106Y-44379788D01*
X111705109Y-44379786D01*
X111830048Y-44207820D01*
X111830047Y-44207820D01*
X111830051Y-44207816D01*
X111926557Y-44018412D01*
X111992246Y-43816243D01*
X112025500Y-43606287D01*
X112025500Y-43393713D01*
X112015788Y-43332395D01*
X114279037Y-43332395D01*
X114279037Y-43332404D01*
X114298860Y-43596935D01*
X114298861Y-43596940D01*
X114357890Y-43855566D01*
X114357896Y-43855585D01*
X114454814Y-44102528D01*
X114454813Y-44102528D01*
X114587456Y-44332271D01*
X114637641Y-44395203D01*
X115571037Y-43461808D01*
X115588075Y-43525393D01*
X115653901Y-43639407D01*
X115746993Y-43732499D01*
X115861007Y-43798325D01*
X115924591Y-43815362D01*
X114990438Y-44749513D01*
X115166518Y-44869562D01*
X115166526Y-44869567D01*
X115405530Y-44984664D01*
X115405528Y-44984664D01*
X115659025Y-45062858D01*
X115659031Y-45062859D01*
X115921351Y-45102399D01*
X115921358Y-45102400D01*
X116186642Y-45102400D01*
X116186648Y-45102399D01*
X116448968Y-45062859D01*
X116448974Y-45062858D01*
X116702470Y-44984664D01*
X116941474Y-44869567D01*
X116941484Y-44869560D01*
X117117560Y-44749513D01*
X116183408Y-43815362D01*
X116246993Y-43798325D01*
X116361007Y-43732499D01*
X116454099Y-43639407D01*
X116519925Y-43525393D01*
X116536962Y-43461808D01*
X117470357Y-44395203D01*
X117520542Y-44332271D01*
X117653185Y-44102528D01*
X117750103Y-43855585D01*
X117750109Y-43855566D01*
X117809138Y-43596940D01*
X117809139Y-43596935D01*
X117828963Y-43332404D01*
X117828963Y-43332395D01*
X117809139Y-43067864D01*
X117809138Y-43067858D01*
X117750109Y-42809233D01*
X117750103Y-42809214D01*
X117653185Y-42562271D01*
X117653186Y-42562271D01*
X117520543Y-42332528D01*
X117470356Y-42269596D01*
X116536962Y-43202990D01*
X116519925Y-43139407D01*
X116454099Y-43025393D01*
X116361007Y-42932301D01*
X116246993Y-42866475D01*
X116183409Y-42849437D01*
X117117560Y-41915285D01*
X116941475Y-41795233D01*
X116941474Y-41795232D01*
X116702469Y-41680135D01*
X116702471Y-41680135D01*
X116448974Y-41601941D01*
X116448968Y-41601940D01*
X116186648Y-41562400D01*
X115921351Y-41562400D01*
X115659031Y-41601940D01*
X115659025Y-41601941D01*
X115405529Y-41680135D01*
X115166524Y-41795234D01*
X115166511Y-41795241D01*
X114990438Y-41915284D01*
X115924591Y-42849437D01*
X115861007Y-42866475D01*
X115746993Y-42932301D01*
X115653901Y-43025393D01*
X115588075Y-43139407D01*
X115571037Y-43202991D01*
X114637642Y-42269596D01*
X114587457Y-42332527D01*
X114454814Y-42562271D01*
X114357896Y-42809214D01*
X114357890Y-42809233D01*
X114298862Y-43067858D01*
X114298860Y-43067864D01*
X114279037Y-43332395D01*
X112015788Y-43332395D01*
X111992246Y-43183757D01*
X111926557Y-42981588D01*
X111830051Y-42792184D01*
X111830049Y-42792181D01*
X111830048Y-42792179D01*
X111705109Y-42620213D01*
X111566294Y-42481398D01*
X111532809Y-42420075D01*
X111537793Y-42350383D01*
X111579665Y-42294450D01*
X111588879Y-42288178D01*
X111594331Y-42284814D01*
X111594334Y-42284814D01*
X111743656Y-42192712D01*
X111867712Y-42068656D01*
X111959814Y-41919334D01*
X112014999Y-41752797D01*
X112025500Y-41650009D01*
X112025499Y-40349992D01*
X112014999Y-40247203D01*
X111959814Y-40080666D01*
X111867712Y-39931344D01*
X111743656Y-39807288D01*
X111614355Y-39727535D01*
X111594336Y-39715187D01*
X111594331Y-39715185D01*
X111523177Y-39691607D01*
X111427797Y-39660001D01*
X111427795Y-39660000D01*
X111325010Y-39649500D01*
X109774998Y-39649500D01*
X109774981Y-39649501D01*
X109672203Y-39660000D01*
X109672200Y-39660001D01*
X109505668Y-39715185D01*
X109505663Y-39715187D01*
X109356342Y-39807289D01*
X109232289Y-39931342D01*
X109140187Y-40080663D01*
X109140185Y-40080668D01*
X109128524Y-40115860D01*
X109085001Y-40247203D01*
X109085001Y-40247204D01*
X109085000Y-40247204D01*
X109074500Y-40349983D01*
X106257693Y-40349983D01*
X106251900Y-33496875D01*
X106271528Y-33429820D01*
X106324293Y-33384020D01*
X106393443Y-33374018D01*
X106457023Y-33402989D01*
X106486385Y-33440476D01*
X106628032Y-33718474D01*
X106833536Y-34034923D01*
X107032197Y-34280248D01*
X108616829Y-32695615D01*
X108701209Y-32811753D01*
X108854247Y-32964791D01*
X108970383Y-33049169D01*
X107385750Y-34633801D01*
X107631076Y-34832463D01*
X107947525Y-35037967D01*
X108283735Y-35209275D01*
X108636007Y-35344500D01*
X109000489Y-35442162D01*
X109000496Y-35442163D01*
X109373179Y-35501191D01*
X109749999Y-35520940D01*
X109750001Y-35520940D01*
X110126820Y-35501191D01*
X110499503Y-35442163D01*
X110499510Y-35442162D01*
X110863992Y-35344500D01*
X111216264Y-35209275D01*
X111552474Y-35037967D01*
X111868924Y-34832463D01*
X112114249Y-34633802D01*
X110529616Y-33049169D01*
X110645753Y-32964791D01*
X110798791Y-32811753D01*
X110883169Y-32695616D01*
X112467801Y-34280248D01*
X112666463Y-34034924D01*
X112871967Y-33718474D01*
X113043275Y-33382264D01*
X113178500Y-33029992D01*
X113276162Y-32665510D01*
X113276163Y-32665503D01*
X113335191Y-32292820D01*
X113354940Y-31916000D01*
X113354940Y-31915999D01*
X113335191Y-31539179D01*
X113276163Y-31166496D01*
X113276162Y-31166489D01*
X113178500Y-30802007D01*
X113043275Y-30449735D01*
X112871967Y-30113525D01*
X112666463Y-29797076D01*
X112467801Y-29551750D01*
X110883168Y-31136382D01*
X110798791Y-31020247D01*
X110645753Y-30867209D01*
X110529615Y-30782829D01*
X112114248Y-29198197D01*
X111868923Y-28999536D01*
X111552474Y-28794032D01*
X111416100Y-28724546D01*
X111365304Y-28676571D01*
X111348509Y-28608751D01*
X111371046Y-28542616D01*
X111425761Y-28499164D01*
X111472418Y-28490061D01*
X157009156Y-28499477D01*
G37*
%TD.AperFunction*%
%TA.AperFunction,Conductor*%
G36*
X161467802Y-34280248D02*
G01*
X161666463Y-34034924D01*
X161871967Y-33718474D01*
X162043275Y-33382263D01*
X162054259Y-33353649D01*
X162096660Y-33298115D01*
X162162353Y-33274321D01*
X162230482Y-33289821D01*
X162279416Y-33339694D01*
X162294024Y-33398154D01*
X162262914Y-88364373D01*
X162243191Y-88431401D01*
X162190362Y-88477127D01*
X162121197Y-88487031D01*
X162057658Y-88457970D01*
X162028429Y-88420598D01*
X161871967Y-88113525D01*
X161666463Y-87797076D01*
X161467801Y-87551750D01*
X159883169Y-89136383D01*
X159798791Y-89020247D01*
X159645753Y-88867209D01*
X159529615Y-88782829D01*
X161114248Y-87198197D01*
X160868923Y-86999536D01*
X160552474Y-86794032D01*
X160216264Y-86622724D01*
X160024852Y-86549248D01*
X159969320Y-86506846D01*
X159945527Y-86441152D01*
X159961029Y-86373024D01*
X160010902Y-86324091D01*
X160058481Y-86309956D01*
X160240068Y-86294070D01*
X160453450Y-86236894D01*
X160653662Y-86143534D01*
X160834620Y-86016826D01*
X160990826Y-85860620D01*
X161117534Y-85679662D01*
X161210894Y-85479450D01*
X161268070Y-85266068D01*
X161287323Y-85046000D01*
X161268070Y-84825932D01*
X161210894Y-84612550D01*
X161117534Y-84412339D01*
X160990826Y-84231380D01*
X160834620Y-84075174D01*
X160834616Y-84075171D01*
X160834615Y-84075170D01*
X160653666Y-83948468D01*
X160653658Y-83948464D01*
X160524811Y-83888382D01*
X160472371Y-83842210D01*
X160453219Y-83775017D01*
X160473435Y-83708135D01*
X160524811Y-83663618D01*
X160530802Y-83660824D01*
X160653662Y-83603534D01*
X160834620Y-83476826D01*
X160990826Y-83320620D01*
X161117534Y-83139662D01*
X161210894Y-82939450D01*
X161268070Y-82726068D01*
X161287323Y-82506000D01*
X161268070Y-82285932D01*
X161210894Y-82072550D01*
X161117534Y-81872339D01*
X161014412Y-81725065D01*
X160990827Y-81691381D01*
X160932703Y-81633257D01*
X160834620Y-81535174D01*
X160834616Y-81535171D01*
X160834615Y-81535170D01*
X160653666Y-81408468D01*
X160653658Y-81408464D01*
X160524811Y-81348382D01*
X160472371Y-81302210D01*
X160453219Y-81235017D01*
X160473435Y-81168135D01*
X160524811Y-81123618D01*
X160530802Y-81120824D01*
X160653662Y-81063534D01*
X160834620Y-80936826D01*
X160990826Y-80780620D01*
X161117534Y-80599662D01*
X161210894Y-80399450D01*
X161268070Y-80186068D01*
X161287323Y-79966000D01*
X161268070Y-79745932D01*
X161210894Y-79532550D01*
X161117534Y-79332339D01*
X160999585Y-79163889D01*
X160990827Y-79151381D01*
X160989436Y-79149990D01*
X160834620Y-78995174D01*
X160834616Y-78995171D01*
X160834615Y-78995170D01*
X160653666Y-78868468D01*
X160653662Y-78868466D01*
X160524218Y-78808105D01*
X160471779Y-78761932D01*
X160452627Y-78694739D01*
X160472843Y-78627858D01*
X160524219Y-78583340D01*
X160653416Y-78523095D01*
X160653417Y-78523094D01*
X160718188Y-78477741D01*
X160155942Y-77915494D01*
X160216081Y-77899381D01*
X160331920Y-77832502D01*
X160426502Y-77737920D01*
X160493381Y-77622081D01*
X160509495Y-77561942D01*
X161071741Y-78124188D01*
X161117094Y-78059417D01*
X161117100Y-78059407D01*
X161210419Y-77859284D01*
X161210424Y-77859270D01*
X161267573Y-77645986D01*
X161267575Y-77645976D01*
X161286821Y-77426000D01*
X161286821Y-77425999D01*
X161267575Y-77206023D01*
X161267573Y-77206013D01*
X161210424Y-76992729D01*
X161210420Y-76992720D01*
X161117096Y-76792586D01*
X161071741Y-76727811D01*
X161071740Y-76727810D01*
X160509494Y-77290056D01*
X160493381Y-77229919D01*
X160426502Y-77114080D01*
X160331920Y-77019498D01*
X160216081Y-76952619D01*
X160155941Y-76936504D01*
X160718188Y-76374258D01*
X160653411Y-76328901D01*
X160653405Y-76328898D01*
X160524219Y-76268658D01*
X160471779Y-76222486D01*
X160452627Y-76155293D01*
X160472843Y-76088411D01*
X160524219Y-76043894D01*
X160524811Y-76043618D01*
X160653662Y-75983534D01*
X160834620Y-75856826D01*
X160990826Y-75700620D01*
X161117534Y-75519662D01*
X161210894Y-75319450D01*
X161268070Y-75106068D01*
X161287323Y-74886000D01*
X161268070Y-74665932D01*
X161210894Y-74452550D01*
X161117534Y-74252339D01*
X160990826Y-74071380D01*
X160834620Y-73915174D01*
X160834616Y-73915171D01*
X160834615Y-73915170D01*
X160653666Y-73788468D01*
X160653662Y-73788466D01*
X160524218Y-73728105D01*
X160471779Y-73681932D01*
X160452627Y-73614739D01*
X160472843Y-73547858D01*
X160524219Y-73503340D01*
X160653416Y-73443095D01*
X160653417Y-73443094D01*
X160718188Y-73397741D01*
X160155942Y-72835494D01*
X160216081Y-72819381D01*
X160331920Y-72752502D01*
X160426502Y-72657920D01*
X160493381Y-72542081D01*
X160509495Y-72481942D01*
X161071741Y-73044188D01*
X161117094Y-72979417D01*
X161117100Y-72979407D01*
X161210419Y-72779284D01*
X161210424Y-72779270D01*
X161267573Y-72565986D01*
X161267575Y-72565976D01*
X161286821Y-72346000D01*
X161286821Y-72345999D01*
X161267575Y-72126023D01*
X161267573Y-72126013D01*
X161210424Y-71912729D01*
X161210420Y-71912720D01*
X161117096Y-71712586D01*
X161071741Y-71647811D01*
X161071740Y-71647810D01*
X160509494Y-72210056D01*
X160493381Y-72149919D01*
X160426502Y-72034080D01*
X160331920Y-71939498D01*
X160216081Y-71872619D01*
X160155941Y-71856504D01*
X160718188Y-71294258D01*
X160653411Y-71248901D01*
X160653405Y-71248898D01*
X160524219Y-71188658D01*
X160471779Y-71142486D01*
X160452627Y-71075293D01*
X160472843Y-71008411D01*
X160524219Y-70963894D01*
X160524811Y-70963618D01*
X160653662Y-70903534D01*
X160834620Y-70776826D01*
X160990826Y-70620620D01*
X161117534Y-70439662D01*
X161210894Y-70239450D01*
X161268070Y-70026068D01*
X161287323Y-69806000D01*
X161268070Y-69585932D01*
X161210894Y-69372550D01*
X161117534Y-69172339D01*
X160990826Y-68991380D01*
X160834620Y-68835174D01*
X160834616Y-68835171D01*
X160834615Y-68835170D01*
X160653666Y-68708468D01*
X160653658Y-68708464D01*
X160524811Y-68648382D01*
X160472371Y-68602210D01*
X160453219Y-68535017D01*
X160473435Y-68468135D01*
X160524811Y-68423618D01*
X160530802Y-68420824D01*
X160653662Y-68363534D01*
X160834620Y-68236826D01*
X160990826Y-68080620D01*
X161117534Y-67899662D01*
X161210894Y-67699450D01*
X161268070Y-67486068D01*
X161287323Y-67266000D01*
X161268070Y-67045932D01*
X161210894Y-66832550D01*
X161117534Y-66632339D01*
X160990826Y-66451380D01*
X160834620Y-66295174D01*
X160834616Y-66295171D01*
X160834615Y-66295170D01*
X160653666Y-66168468D01*
X160653658Y-66168464D01*
X160524811Y-66108382D01*
X160472371Y-66062210D01*
X160453219Y-65995017D01*
X160473435Y-65928135D01*
X160524811Y-65883618D01*
X160530802Y-65880824D01*
X160653662Y-65823534D01*
X160834620Y-65696826D01*
X160990826Y-65540620D01*
X161117534Y-65359662D01*
X161210894Y-65159450D01*
X161268070Y-64946068D01*
X161283132Y-64773901D01*
X161287323Y-64726002D01*
X161287323Y-64725997D01*
X161270919Y-64538498D01*
X161268070Y-64505932D01*
X161210894Y-64292550D01*
X161117534Y-64092339D01*
X161042975Y-63985857D01*
X160990827Y-63911381D01*
X160926721Y-63847275D01*
X160834620Y-63755174D01*
X160834616Y-63755171D01*
X160834615Y-63755170D01*
X160653666Y-63628468D01*
X160653658Y-63628464D01*
X160524811Y-63568382D01*
X160472371Y-63522210D01*
X160453219Y-63455017D01*
X160473435Y-63388135D01*
X160524811Y-63343618D01*
X160530802Y-63340824D01*
X160653662Y-63283534D01*
X160834620Y-63156826D01*
X160990826Y-63000620D01*
X161117534Y-62819662D01*
X161210894Y-62619450D01*
X161268070Y-62406068D01*
X161287323Y-62186000D01*
X161282776Y-62134032D01*
X161280103Y-62103474D01*
X161268070Y-61965932D01*
X161210894Y-61752550D01*
X161117534Y-61552339D01*
X161029019Y-61425925D01*
X160990827Y-61371381D01*
X160926721Y-61307275D01*
X160834620Y-61215174D01*
X160834616Y-61215171D01*
X160834615Y-61215170D01*
X160653666Y-61088468D01*
X160653662Y-61088466D01*
X160524218Y-61028105D01*
X160471779Y-60981932D01*
X160452627Y-60914739D01*
X160472843Y-60847858D01*
X160524219Y-60803340D01*
X160653416Y-60743095D01*
X160653417Y-60743094D01*
X160718188Y-60697741D01*
X160155942Y-60135494D01*
X160216081Y-60119381D01*
X160331920Y-60052502D01*
X160426502Y-59957920D01*
X160493381Y-59842081D01*
X160509495Y-59781942D01*
X161071741Y-60344188D01*
X161117094Y-60279417D01*
X161117100Y-60279407D01*
X161210419Y-60079284D01*
X161210424Y-60079270D01*
X161267573Y-59865986D01*
X161267575Y-59865976D01*
X161286821Y-59646000D01*
X161286821Y-59645999D01*
X161267575Y-59426023D01*
X161267573Y-59426013D01*
X161210424Y-59212729D01*
X161210420Y-59212720D01*
X161117096Y-59012586D01*
X161071741Y-58947811D01*
X161071740Y-58947810D01*
X160509494Y-59510056D01*
X160493381Y-59449919D01*
X160426502Y-59334080D01*
X160331920Y-59239498D01*
X160216081Y-59172619D01*
X160155941Y-59156504D01*
X160718188Y-58594258D01*
X160653411Y-58548901D01*
X160653405Y-58548898D01*
X160524219Y-58488658D01*
X160471779Y-58442486D01*
X160452627Y-58375293D01*
X160472843Y-58308411D01*
X160524219Y-58263894D01*
X160524811Y-58263618D01*
X160653662Y-58203534D01*
X160834620Y-58076826D01*
X160990826Y-57920620D01*
X161117534Y-57739662D01*
X161210894Y-57539450D01*
X161268070Y-57326068D01*
X161285555Y-57126206D01*
X161287323Y-57106002D01*
X161287323Y-57105997D01*
X161280103Y-57023474D01*
X161268070Y-56885932D01*
X161210894Y-56672550D01*
X161117534Y-56472339D01*
X161032222Y-56350500D01*
X160990827Y-56291381D01*
X160925130Y-56225684D01*
X160834620Y-56135174D01*
X160834616Y-56135171D01*
X160834615Y-56135170D01*
X160653666Y-56008468D01*
X160653658Y-56008464D01*
X160524811Y-55948382D01*
X160472371Y-55902210D01*
X160453219Y-55835017D01*
X160473435Y-55768135D01*
X160524811Y-55723618D01*
X160558690Y-55707820D01*
X160653662Y-55663534D01*
X160834620Y-55536826D01*
X160990826Y-55380620D01*
X161117534Y-55199662D01*
X161210894Y-54999450D01*
X161268070Y-54786068D01*
X161287323Y-54566000D01*
X161268070Y-54345932D01*
X161210894Y-54132550D01*
X161117534Y-53932339D01*
X160990826Y-53751380D01*
X160834620Y-53595174D01*
X160834616Y-53595171D01*
X160834615Y-53595170D01*
X160653666Y-53468468D01*
X160653662Y-53468466D01*
X160524218Y-53408105D01*
X160471779Y-53361932D01*
X160452627Y-53294739D01*
X160472843Y-53227858D01*
X160524219Y-53183340D01*
X160653416Y-53123095D01*
X160653417Y-53123094D01*
X160718188Y-53077741D01*
X160155942Y-52515494D01*
X160216081Y-52499381D01*
X160331920Y-52432502D01*
X160426502Y-52337920D01*
X160493381Y-52222081D01*
X160509495Y-52161942D01*
X161071741Y-52724188D01*
X161117094Y-52659417D01*
X161117100Y-52659407D01*
X161210419Y-52459284D01*
X161210424Y-52459270D01*
X161267573Y-52245986D01*
X161267575Y-52245976D01*
X161286821Y-52026000D01*
X161286821Y-52025999D01*
X161267575Y-51806023D01*
X161267573Y-51806013D01*
X161210424Y-51592729D01*
X161210420Y-51592720D01*
X161117096Y-51392586D01*
X161071741Y-51327811D01*
X161071740Y-51327810D01*
X160509494Y-51890056D01*
X160493381Y-51829919D01*
X160426502Y-51714080D01*
X160331920Y-51619498D01*
X160216081Y-51552619D01*
X160155941Y-51536504D01*
X160718188Y-50974258D01*
X160653411Y-50928901D01*
X160653405Y-50928898D01*
X160524219Y-50868658D01*
X160471779Y-50822486D01*
X160452627Y-50755293D01*
X160472843Y-50688411D01*
X160524219Y-50643894D01*
X160524811Y-50643618D01*
X160653662Y-50583534D01*
X160834620Y-50456826D01*
X160990826Y-50300620D01*
X161117534Y-50119662D01*
X161210894Y-49919450D01*
X161268070Y-49706068D01*
X161287323Y-49486000D01*
X161268070Y-49265932D01*
X161210894Y-49052550D01*
X161117534Y-48852339D01*
X161028472Y-48725144D01*
X160990827Y-48671381D01*
X160930860Y-48611414D01*
X160834620Y-48515174D01*
X160834616Y-48515171D01*
X160834615Y-48515170D01*
X160653666Y-48388468D01*
X160653658Y-48388464D01*
X160524811Y-48328382D01*
X160472371Y-48282210D01*
X160453219Y-48215017D01*
X160473435Y-48148135D01*
X160524811Y-48103618D01*
X160530802Y-48100824D01*
X160653662Y-48043534D01*
X160834620Y-47916826D01*
X160990826Y-47760620D01*
X161117534Y-47579662D01*
X161210894Y-47379450D01*
X161268070Y-47166068D01*
X161287323Y-46946000D01*
X161268070Y-46725932D01*
X161210894Y-46512550D01*
X161117534Y-46312339D01*
X161008235Y-46156243D01*
X160990827Y-46131381D01*
X160921981Y-46062535D01*
X160834620Y-45975174D01*
X160834616Y-45975171D01*
X160834615Y-45975170D01*
X160653666Y-45848468D01*
X160653658Y-45848464D01*
X160524811Y-45788382D01*
X160472371Y-45742210D01*
X160453219Y-45675017D01*
X160473435Y-45608135D01*
X160524811Y-45563618D01*
X160538210Y-45557370D01*
X160653662Y-45503534D01*
X160834620Y-45376826D01*
X160990826Y-45220620D01*
X161117534Y-45039662D01*
X161210894Y-44839450D01*
X161268070Y-44626068D01*
X161287323Y-44406000D01*
X161286378Y-44395203D01*
X161276896Y-44286818D01*
X161268070Y-44185932D01*
X161210894Y-43972550D01*
X161117534Y-43772339D01*
X161024455Y-43639407D01*
X160990827Y-43591381D01*
X160924839Y-43525393D01*
X160834620Y-43435174D01*
X160834616Y-43435171D01*
X160834615Y-43435170D01*
X160653666Y-43308468D01*
X160653662Y-43308466D01*
X160524218Y-43248105D01*
X160471779Y-43201932D01*
X160452627Y-43134739D01*
X160472843Y-43067858D01*
X160524219Y-43023340D01*
X160653416Y-42963095D01*
X160653417Y-42963094D01*
X160718188Y-42917741D01*
X160155942Y-42355495D01*
X160216081Y-42339381D01*
X160331920Y-42272502D01*
X160426502Y-42177920D01*
X160493381Y-42062081D01*
X160509495Y-42001942D01*
X161071741Y-42564188D01*
X161117094Y-42499417D01*
X161117100Y-42499407D01*
X161210419Y-42299284D01*
X161210424Y-42299270D01*
X161267573Y-42085986D01*
X161267575Y-42085976D01*
X161286821Y-41866000D01*
X161286821Y-41865999D01*
X161267575Y-41646023D01*
X161267573Y-41646013D01*
X161210424Y-41432729D01*
X161210420Y-41432720D01*
X161117096Y-41232586D01*
X161071741Y-41167811D01*
X161071740Y-41167810D01*
X160509494Y-41730056D01*
X160493381Y-41669919D01*
X160426502Y-41554080D01*
X160331920Y-41459498D01*
X160216081Y-41392619D01*
X160155941Y-41376504D01*
X160718188Y-40814258D01*
X160653411Y-40768901D01*
X160653405Y-40768898D01*
X160524219Y-40708658D01*
X160471779Y-40662486D01*
X160452627Y-40595293D01*
X160472843Y-40528411D01*
X160524219Y-40483894D01*
X160524811Y-40483618D01*
X160653662Y-40423534D01*
X160834620Y-40296826D01*
X160990826Y-40140620D01*
X161117534Y-39959662D01*
X161210894Y-39759450D01*
X161268070Y-39546068D01*
X161287323Y-39326000D01*
X161268070Y-39105932D01*
X161210894Y-38892550D01*
X161117534Y-38692339D01*
X160990826Y-38511380D01*
X160834620Y-38355174D01*
X160834616Y-38355171D01*
X160830792Y-38351347D01*
X160831607Y-38350531D01*
X160796091Y-38297145D01*
X160790500Y-38260331D01*
X160790500Y-37851669D01*
X160810185Y-37784630D01*
X160831059Y-37760923D01*
X160830791Y-37760655D01*
X160848946Y-37742500D01*
X160990826Y-37600620D01*
X161117534Y-37419662D01*
X161210894Y-37219450D01*
X161268070Y-37006068D01*
X161282931Y-36836204D01*
X161287323Y-36786002D01*
X161287323Y-36785997D01*
X161277883Y-36678099D01*
X161268070Y-36565932D01*
X161210894Y-36352550D01*
X161117534Y-36152339D01*
X161022125Y-36016080D01*
X160990827Y-35971381D01*
X160926037Y-35906591D01*
X160834620Y-35815174D01*
X160834616Y-35815171D01*
X160834615Y-35815170D01*
X160653666Y-35688468D01*
X160653662Y-35688466D01*
X160606457Y-35666454D01*
X160453450Y-35595106D01*
X160453447Y-35595105D01*
X160453445Y-35595104D01*
X160240070Y-35537930D01*
X160240063Y-35537929D01*
X160058482Y-35522043D01*
X159993414Y-35496590D01*
X159952435Y-35439999D01*
X159948557Y-35370238D01*
X159983011Y-35309453D01*
X160024853Y-35282751D01*
X160216261Y-35209276D01*
X160552474Y-35037967D01*
X160868924Y-34832463D01*
X161114249Y-34633802D01*
X159529616Y-33049169D01*
X159645753Y-32964791D01*
X159798791Y-32811753D01*
X159883169Y-32695615D01*
X161467802Y-34280248D01*
G37*
%TD.AperFunction*%
%TA.AperFunction,Conductor*%
G36*
X158531741Y-85744188D02*
G01*
X158577094Y-85679417D01*
X158577095Y-85679416D01*
X158637340Y-85550219D01*
X158683512Y-85497780D01*
X158750706Y-85478627D01*
X158817587Y-85498842D01*
X158862105Y-85550218D01*
X158922466Y-85679662D01*
X158922468Y-85679666D01*
X159049170Y-85860615D01*
X159049175Y-85860621D01*
X159205378Y-86016824D01*
X159205384Y-86016829D01*
X159367868Y-86130601D01*
X159411493Y-86185178D01*
X159418687Y-86254676D01*
X159387164Y-86317031D01*
X159326935Y-86352445D01*
X159277347Y-86354649D01*
X159126820Y-86330808D01*
X158750001Y-86311060D01*
X158749999Y-86311060D01*
X158373179Y-86330808D01*
X158221525Y-86354828D01*
X158152232Y-86345873D01*
X158098780Y-86300877D01*
X158078140Y-86234126D01*
X158096865Y-86166812D01*
X158131003Y-86130780D01*
X158178187Y-86097740D01*
X157615942Y-85535494D01*
X157676081Y-85519381D01*
X157791920Y-85452502D01*
X157886502Y-85357920D01*
X157953381Y-85242081D01*
X157969495Y-85181942D01*
X158531741Y-85744188D01*
G37*
%TD.AperFunction*%
%TA.AperFunction,Conductor*%
G36*
X158817865Y-82959435D02*
G01*
X158862382Y-83010811D01*
X158922464Y-83139658D01*
X158922468Y-83139666D01*
X159049170Y-83320615D01*
X159049175Y-83320621D01*
X159205378Y-83476824D01*
X159205384Y-83476829D01*
X159386333Y-83603531D01*
X159386335Y-83603532D01*
X159386338Y-83603534D01*
X159505748Y-83659215D01*
X159515189Y-83663618D01*
X159567628Y-83709790D01*
X159586780Y-83776984D01*
X159566564Y-83843865D01*
X159515189Y-83888382D01*
X159386340Y-83948465D01*
X159386338Y-83948466D01*
X159205377Y-84075175D01*
X159049175Y-84231377D01*
X158922467Y-84412337D01*
X158862105Y-84541782D01*
X158815932Y-84594221D01*
X158748738Y-84613372D01*
X158681857Y-84593156D01*
X158637341Y-84541780D01*
X158577098Y-84412589D01*
X158577097Y-84412587D01*
X158531741Y-84347811D01*
X158531740Y-84347810D01*
X157969494Y-84910056D01*
X157953381Y-84849919D01*
X157886502Y-84734080D01*
X157791920Y-84639498D01*
X157676081Y-84572619D01*
X157615941Y-84556504D01*
X158178188Y-83994258D01*
X158113411Y-83948901D01*
X158113405Y-83948898D01*
X157984219Y-83888658D01*
X157931779Y-83842486D01*
X157912627Y-83775293D01*
X157932843Y-83708411D01*
X157984219Y-83663894D01*
X157988669Y-83661819D01*
X158113662Y-83603534D01*
X158294620Y-83476826D01*
X158450826Y-83320620D01*
X158577534Y-83139662D01*
X158637618Y-83010811D01*
X158683790Y-82958371D01*
X158750983Y-82939219D01*
X158817865Y-82959435D01*
G37*
%TD.AperFunction*%
%TA.AperFunction,Conductor*%
G36*
X159546619Y-77622081D02*
G01*
X159613498Y-77737920D01*
X159708080Y-77832502D01*
X159823919Y-77899381D01*
X159884057Y-77915494D01*
X159321810Y-78477740D01*
X159386589Y-78523098D01*
X159515781Y-78583342D01*
X159568220Y-78629514D01*
X159587372Y-78696708D01*
X159567156Y-78763589D01*
X159515781Y-78808106D01*
X159386340Y-78868465D01*
X159386338Y-78868466D01*
X159205377Y-78995175D01*
X159049175Y-79151377D01*
X158922466Y-79332338D01*
X158922465Y-79332340D01*
X158862382Y-79461189D01*
X158816209Y-79513628D01*
X158749016Y-79532780D01*
X158682135Y-79512564D01*
X158637618Y-79461189D01*
X158619059Y-79421390D01*
X158577534Y-79332339D01*
X158459585Y-79163889D01*
X158450827Y-79151381D01*
X158449436Y-79149990D01*
X158294620Y-78995174D01*
X158294616Y-78995171D01*
X158294615Y-78995170D01*
X158113666Y-78868468D01*
X158113658Y-78868464D01*
X157984811Y-78808382D01*
X157932371Y-78762210D01*
X157913219Y-78695017D01*
X157933435Y-78628135D01*
X157984811Y-78583618D01*
X157990802Y-78580824D01*
X158113662Y-78523534D01*
X158294620Y-78396826D01*
X158450826Y-78240620D01*
X158577534Y-78059662D01*
X158637894Y-77930218D01*
X158684066Y-77877779D01*
X158751259Y-77858627D01*
X158818141Y-77878843D01*
X158862658Y-77930219D01*
X158922898Y-78059405D01*
X158922901Y-78059411D01*
X158968258Y-78124187D01*
X158968258Y-78124188D01*
X159530504Y-77561941D01*
X159546619Y-77622081D01*
G37*
%TD.AperFunction*%
%TA.AperFunction,Conductor*%
G36*
X158817865Y-75339435D02*
G01*
X158862382Y-75390811D01*
X158922464Y-75519658D01*
X158922468Y-75519666D01*
X159049170Y-75700615D01*
X159049175Y-75700621D01*
X159205378Y-75856824D01*
X159205384Y-75856829D01*
X159386333Y-75983531D01*
X159386335Y-75983532D01*
X159386338Y-75983534D01*
X159515189Y-76043618D01*
X159515781Y-76043894D01*
X159568220Y-76090066D01*
X159587372Y-76157260D01*
X159567156Y-76224141D01*
X159515781Y-76268658D01*
X159386590Y-76328901D01*
X159321811Y-76374258D01*
X159884058Y-76936504D01*
X159823919Y-76952619D01*
X159708080Y-77019498D01*
X159613498Y-77114080D01*
X159546619Y-77229919D01*
X159530504Y-77290057D01*
X158968258Y-76727811D01*
X158922901Y-76792590D01*
X158862658Y-76921781D01*
X158816485Y-76974220D01*
X158749292Y-76993372D01*
X158682411Y-76973156D01*
X158637894Y-76921781D01*
X158577534Y-76792340D01*
X158577533Y-76792338D01*
X158546798Y-76748444D01*
X158450826Y-76611380D01*
X158294620Y-76455174D01*
X158294616Y-76455171D01*
X158294615Y-76455170D01*
X158113666Y-76328468D01*
X158113658Y-76328464D01*
X157984811Y-76268382D01*
X157932371Y-76222210D01*
X157913219Y-76155017D01*
X157933435Y-76088135D01*
X157984811Y-76043618D01*
X157990802Y-76040824D01*
X158113662Y-75983534D01*
X158294620Y-75856826D01*
X158450826Y-75700620D01*
X158577534Y-75519662D01*
X158637618Y-75390811D01*
X158683790Y-75338371D01*
X158750983Y-75319219D01*
X158817865Y-75339435D01*
G37*
%TD.AperFunction*%
%TA.AperFunction,Conductor*%
G36*
X159546619Y-72542081D02*
G01*
X159613498Y-72657920D01*
X159708080Y-72752502D01*
X159823919Y-72819381D01*
X159884057Y-72835494D01*
X159321810Y-73397740D01*
X159386589Y-73443098D01*
X159515781Y-73503342D01*
X159568220Y-73549514D01*
X159587372Y-73616708D01*
X159567156Y-73683589D01*
X159515781Y-73728106D01*
X159386340Y-73788465D01*
X159386338Y-73788466D01*
X159205377Y-73915175D01*
X159049175Y-74071377D01*
X158922466Y-74252338D01*
X158922465Y-74252340D01*
X158862382Y-74381189D01*
X158816209Y-74433628D01*
X158749016Y-74452780D01*
X158682135Y-74432564D01*
X158637618Y-74381189D01*
X158619059Y-74341390D01*
X158577534Y-74252339D01*
X158450826Y-74071380D01*
X158294620Y-73915174D01*
X158294616Y-73915171D01*
X158294615Y-73915170D01*
X158113666Y-73788468D01*
X158113658Y-73788464D01*
X157984811Y-73728382D01*
X157932371Y-73682210D01*
X157913219Y-73615017D01*
X157933435Y-73548135D01*
X157984811Y-73503618D01*
X157990802Y-73500824D01*
X158113662Y-73443534D01*
X158294620Y-73316826D01*
X158450826Y-73160620D01*
X158577534Y-72979662D01*
X158637894Y-72850218D01*
X158684066Y-72797779D01*
X158751259Y-72778627D01*
X158818141Y-72798843D01*
X158862658Y-72850219D01*
X158922898Y-72979405D01*
X158922901Y-72979411D01*
X158968258Y-73044187D01*
X158968258Y-73044188D01*
X159530504Y-72481941D01*
X159546619Y-72542081D01*
G37*
%TD.AperFunction*%
%TA.AperFunction,Conductor*%
G36*
X158817865Y-70259435D02*
G01*
X158862382Y-70310811D01*
X158922464Y-70439658D01*
X158922468Y-70439666D01*
X159049170Y-70620615D01*
X159049175Y-70620621D01*
X159205378Y-70776824D01*
X159205384Y-70776829D01*
X159386333Y-70903531D01*
X159386335Y-70903532D01*
X159386338Y-70903534D01*
X159515189Y-70963618D01*
X159515781Y-70963894D01*
X159568220Y-71010066D01*
X159587372Y-71077260D01*
X159567156Y-71144141D01*
X159515781Y-71188658D01*
X159386590Y-71248901D01*
X159321811Y-71294258D01*
X159884058Y-71856504D01*
X159823919Y-71872619D01*
X159708080Y-71939498D01*
X159613498Y-72034080D01*
X159546619Y-72149919D01*
X159530504Y-72210057D01*
X158968258Y-71647811D01*
X158922901Y-71712590D01*
X158862658Y-71841781D01*
X158816485Y-71894220D01*
X158749292Y-71913372D01*
X158682411Y-71893156D01*
X158637894Y-71841781D01*
X158577534Y-71712340D01*
X158577533Y-71712338D01*
X158450827Y-71531381D01*
X158450823Y-71531377D01*
X158294620Y-71375174D01*
X158294616Y-71375171D01*
X158294615Y-71375170D01*
X158113666Y-71248468D01*
X158113658Y-71248464D01*
X157984811Y-71188382D01*
X157932371Y-71142210D01*
X157913219Y-71075017D01*
X157933435Y-71008135D01*
X157984811Y-70963618D01*
X157990802Y-70960824D01*
X158113662Y-70903534D01*
X158294620Y-70776826D01*
X158450826Y-70620620D01*
X158577534Y-70439662D01*
X158637618Y-70310811D01*
X158683790Y-70258371D01*
X158750983Y-70239219D01*
X158817865Y-70259435D01*
G37*
%TD.AperFunction*%
%TA.AperFunction,Conductor*%
G36*
X158531741Y-67964188D02*
G01*
X158577094Y-67899417D01*
X158577095Y-67899416D01*
X158637340Y-67770219D01*
X158683512Y-67717780D01*
X158750706Y-67698627D01*
X158817587Y-67718842D01*
X158862105Y-67770218D01*
X158922466Y-67899662D01*
X158922468Y-67899666D01*
X159049170Y-68080615D01*
X159049175Y-68080621D01*
X159205378Y-68236824D01*
X159205384Y-68236829D01*
X159386333Y-68363531D01*
X159386335Y-68363532D01*
X159386338Y-68363534D01*
X159505748Y-68419215D01*
X159515189Y-68423618D01*
X159567628Y-68469790D01*
X159586780Y-68536984D01*
X159566564Y-68603865D01*
X159515189Y-68648382D01*
X159386340Y-68708465D01*
X159386338Y-68708466D01*
X159205377Y-68835175D01*
X159049175Y-68991377D01*
X158922466Y-69172338D01*
X158922465Y-69172340D01*
X158862382Y-69301189D01*
X158816209Y-69353628D01*
X158749016Y-69372780D01*
X158682135Y-69352564D01*
X158637618Y-69301189D01*
X158577534Y-69172340D01*
X158577533Y-69172338D01*
X158531283Y-69106286D01*
X158450826Y-68991380D01*
X158294620Y-68835174D01*
X158294616Y-68835171D01*
X158294615Y-68835170D01*
X158113666Y-68708468D01*
X158113662Y-68708466D01*
X157984218Y-68648105D01*
X157931779Y-68601932D01*
X157912627Y-68534739D01*
X157932843Y-68467858D01*
X157984219Y-68423340D01*
X158113416Y-68363095D01*
X158113417Y-68363094D01*
X158178188Y-68317741D01*
X157615942Y-67755494D01*
X157676081Y-67739381D01*
X157791920Y-67672502D01*
X157886502Y-67577920D01*
X157953381Y-67462081D01*
X157969495Y-67401942D01*
X158531741Y-67964188D01*
G37*
%TD.AperFunction*%
%TA.AperFunction,Conductor*%
G36*
X158817865Y-65179435D02*
G01*
X158862382Y-65230811D01*
X158922464Y-65359658D01*
X158922468Y-65359666D01*
X159049170Y-65540615D01*
X159049175Y-65540621D01*
X159205378Y-65696824D01*
X159205384Y-65696829D01*
X159386333Y-65823531D01*
X159386335Y-65823532D01*
X159386338Y-65823534D01*
X159505748Y-65879215D01*
X159515189Y-65883618D01*
X159567628Y-65929790D01*
X159586780Y-65996984D01*
X159566564Y-66063865D01*
X159515189Y-66108382D01*
X159386340Y-66168465D01*
X159386338Y-66168466D01*
X159205377Y-66295175D01*
X159049175Y-66451377D01*
X158922467Y-66632337D01*
X158862105Y-66761782D01*
X158815932Y-66814221D01*
X158748738Y-66833372D01*
X158681857Y-66813156D01*
X158637341Y-66761780D01*
X158577098Y-66632589D01*
X158577097Y-66632587D01*
X158531741Y-66567811D01*
X158531740Y-66567810D01*
X157969494Y-67130056D01*
X157953381Y-67069919D01*
X157886502Y-66954080D01*
X157791920Y-66859498D01*
X157676081Y-66792619D01*
X157615941Y-66776504D01*
X158178188Y-66214258D01*
X158113411Y-66168901D01*
X158113405Y-66168898D01*
X157984219Y-66108658D01*
X157931779Y-66062486D01*
X157912627Y-65995293D01*
X157932843Y-65928411D01*
X157984219Y-65883894D01*
X157984811Y-65883618D01*
X158113662Y-65823534D01*
X158294620Y-65696826D01*
X158450826Y-65540620D01*
X158577534Y-65359662D01*
X158637618Y-65230811D01*
X158683790Y-65178371D01*
X158750983Y-65159219D01*
X158817865Y-65179435D01*
G37*
%TD.AperFunction*%
%TA.AperFunction,Conductor*%
G36*
X156151217Y-49594760D02*
G01*
X156207150Y-49636632D01*
X156231411Y-49700135D01*
X156231929Y-49706062D01*
X156231930Y-49706070D01*
X156289104Y-49919445D01*
X156289105Y-49919447D01*
X156289106Y-49919450D01*
X156329341Y-50005735D01*
X156382466Y-50119662D01*
X156382468Y-50119666D01*
X156509170Y-50300615D01*
X156509175Y-50300621D01*
X156665378Y-50456824D01*
X156665384Y-50456829D01*
X156846333Y-50583531D01*
X156846335Y-50583532D01*
X156846338Y-50583534D01*
X156965748Y-50639215D01*
X156975189Y-50643618D01*
X157027628Y-50689790D01*
X157046780Y-50756984D01*
X157026564Y-50823865D01*
X156975189Y-50868382D01*
X156846340Y-50928465D01*
X156846338Y-50928466D01*
X156665377Y-51055175D01*
X156509175Y-51211377D01*
X156382466Y-51392338D01*
X156382465Y-51392340D01*
X156289107Y-51592548D01*
X156289104Y-51592554D01*
X156231930Y-51805929D01*
X156231929Y-51805937D01*
X156212677Y-52025997D01*
X156212677Y-52026002D01*
X156231929Y-52246062D01*
X156231930Y-52246070D01*
X156289104Y-52459445D01*
X156289105Y-52459447D01*
X156289106Y-52459450D01*
X156349766Y-52589537D01*
X156382466Y-52659662D01*
X156382468Y-52659666D01*
X156509170Y-52840615D01*
X156509175Y-52840621D01*
X156558675Y-52890121D01*
X156592160Y-52951444D01*
X156587176Y-53021136D01*
X156558675Y-53065483D01*
X155994270Y-53629888D01*
X155994267Y-53629891D01*
X155967919Y-53656239D01*
X155907142Y-53717015D01*
X155884180Y-53751381D01*
X155838689Y-53819461D01*
X155838685Y-53819468D01*
X155807686Y-53894309D01*
X155791538Y-53933292D01*
X155791538Y-53933294D01*
X155791537Y-53933297D01*
X155768758Y-54047820D01*
X155767500Y-54054145D01*
X155767500Y-59459047D01*
X155747815Y-59526086D01*
X155731181Y-59546728D01*
X154821727Y-60456181D01*
X154760404Y-60489666D01*
X154734046Y-60492500D01*
X154306830Y-60492500D01*
X154306812Y-60492501D01*
X154205747Y-60502825D01*
X154041984Y-60557092D01*
X154041981Y-60557093D01*
X153895151Y-60647659D01*
X153780827Y-60761983D01*
X153719504Y-60795467D01*
X153649812Y-60790483D01*
X153605465Y-60761982D01*
X153491538Y-60648055D01*
X153491534Y-60648052D01*
X153344811Y-60557551D01*
X153344800Y-60557546D01*
X153181152Y-60503319D01*
X153080154Y-60493000D01*
X153031000Y-60493000D01*
X153031000Y-61344000D01*
X153011315Y-61411039D01*
X152958511Y-61456794D01*
X152907000Y-61468000D01*
X152781000Y-61468000D01*
X152781000Y-61594000D01*
X152761315Y-61661039D01*
X152708511Y-61706794D01*
X152657000Y-61718000D01*
X151793501Y-61718000D01*
X151793501Y-61754654D01*
X151803819Y-61855652D01*
X151858046Y-62019300D01*
X151858051Y-62019311D01*
X151948552Y-62166034D01*
X151948555Y-62166038D01*
X152070461Y-62287944D01*
X152070465Y-62287947D01*
X152217188Y-62378448D01*
X152217199Y-62378453D01*
X152380847Y-62432680D01*
X152481851Y-62442999D01*
X152535545Y-62442999D01*
X152602585Y-62462682D01*
X152648340Y-62515486D01*
X152658285Y-62584644D01*
X152629261Y-62648200D01*
X152623229Y-62654680D01*
X152562725Y-62715185D01*
X152439727Y-62838182D01*
X152378407Y-62871666D01*
X152352048Y-62874500D01*
X144785227Y-62874500D01*
X144718188Y-62854815D01*
X144683652Y-62821623D01*
X144548494Y-62628597D01*
X144381402Y-62461506D01*
X144381396Y-62461501D01*
X144195842Y-62331575D01*
X144152217Y-62276998D01*
X144145023Y-62207500D01*
X144176546Y-62145145D01*
X144195842Y-62128425D01*
X144272248Y-62074925D01*
X144381401Y-61998495D01*
X144548495Y-61831401D01*
X144678425Y-61645842D01*
X144733002Y-61602217D01*
X144802500Y-61595023D01*
X144864855Y-61626546D01*
X144881575Y-61645842D01*
X145011500Y-61831395D01*
X145011505Y-61831401D01*
X145178599Y-61998495D01*
X145208623Y-62019518D01*
X145372165Y-62134032D01*
X145372167Y-62134033D01*
X145372170Y-62134035D01*
X145586337Y-62233903D01*
X145814592Y-62295063D01*
X146002918Y-62311539D01*
X146049999Y-62315659D01*
X146050000Y-62315659D01*
X146050001Y-62315659D01*
X146089234Y-62312226D01*
X146285408Y-62295063D01*
X146513663Y-62233903D01*
X146727830Y-62134035D01*
X146921401Y-61998495D01*
X147088495Y-61831401D01*
X147218730Y-61645405D01*
X147273307Y-61601781D01*
X147342805Y-61594587D01*
X147405160Y-61626110D01*
X147421879Y-61645405D01*
X147475072Y-61721372D01*
X147475073Y-61721372D01*
X148107037Y-61089408D01*
X148124075Y-61152993D01*
X148189901Y-61267007D01*
X148282993Y-61360099D01*
X148397007Y-61425925D01*
X148460591Y-61442962D01*
X147828626Y-62074926D01*
X147912417Y-62133598D01*
X147912421Y-62133600D01*
X148126507Y-62233429D01*
X148126516Y-62233433D01*
X148354673Y-62294567D01*
X148354684Y-62294569D01*
X148589998Y-62315157D01*
X148590002Y-62315157D01*
X148825315Y-62294569D01*
X148825326Y-62294567D01*
X149053483Y-62233433D01*
X149053492Y-62233429D01*
X149267580Y-62133599D01*
X149351371Y-62074925D01*
X148719408Y-61442962D01*
X148782993Y-61425925D01*
X148897007Y-61360099D01*
X148990099Y-61267007D01*
X149055925Y-61152993D01*
X149072962Y-61089408D01*
X149704925Y-61721371D01*
X149763599Y-61637580D01*
X149863429Y-61423492D01*
X149863433Y-61423483D01*
X149924567Y-61195326D01*
X149924569Y-61195315D01*
X149925791Y-61181345D01*
X151793500Y-61181345D01*
X151793500Y-61218000D01*
X152531000Y-61218000D01*
X152531000Y-60493000D01*
X152530999Y-60492999D01*
X152481861Y-60493000D01*
X152481843Y-60493001D01*
X152380847Y-60503319D01*
X152217199Y-60557546D01*
X152217188Y-60557551D01*
X152070465Y-60648052D01*
X152070461Y-60648055D01*
X151948555Y-60769961D01*
X151948552Y-60769965D01*
X151858051Y-60916688D01*
X151858046Y-60916699D01*
X151803819Y-61080347D01*
X151793500Y-61181345D01*
X149925791Y-61181345D01*
X149945157Y-60960001D01*
X149945157Y-60959998D01*
X149924569Y-60724684D01*
X149924567Y-60724673D01*
X149863433Y-60496516D01*
X149863429Y-60496507D01*
X149763601Y-60282424D01*
X149704925Y-60198626D01*
X149072962Y-60830590D01*
X149055925Y-60767007D01*
X148990099Y-60652993D01*
X148897007Y-60559901D01*
X148782993Y-60494075D01*
X148719409Y-60477037D01*
X149351372Y-59845073D01*
X149267576Y-59786398D01*
X149053492Y-59686570D01*
X149053485Y-59686567D01*
X148932952Y-59654270D01*
X148873292Y-59617905D01*
X148842763Y-59555057D01*
X148851058Y-59485682D01*
X148895543Y-59431804D01*
X148940849Y-59412879D01*
X148999188Y-59401275D01*
X149095836Y-59382051D01*
X149168793Y-59351831D01*
X149277914Y-59306632D01*
X149441782Y-59197139D01*
X149581139Y-59057782D01*
X149581139Y-59057781D01*
X149581140Y-59057781D01*
X149666368Y-58972551D01*
X149748140Y-58890781D01*
X149748140Y-58890779D01*
X149755201Y-58883719D01*
X149755207Y-58883712D01*
X151412101Y-57226818D01*
X151473424Y-57193333D01*
X151499782Y-57190499D01*
X152159002Y-57190499D01*
X152159008Y-57190499D01*
X152261797Y-57179999D01*
X152428334Y-57124814D01*
X152577656Y-57032712D01*
X152701712Y-56908656D01*
X152793814Y-56759334D01*
X152848999Y-56592797D01*
X152859500Y-56490009D01*
X152859499Y-55189992D01*
X152848999Y-55087203D01*
X152793814Y-54920666D01*
X152701712Y-54771344D01*
X152577656Y-54647288D01*
X152428334Y-54555186D01*
X152428333Y-54555185D01*
X152422878Y-54551821D01*
X152376154Y-54499873D01*
X152364931Y-54430910D01*
X152392775Y-54366828D01*
X152400272Y-54358623D01*
X152539104Y-54219792D01*
X152567935Y-54180110D01*
X152664048Y-54047820D01*
X152664047Y-54047820D01*
X152664051Y-54047816D01*
X152760557Y-53858412D01*
X152826246Y-53656243D01*
X152859500Y-53446287D01*
X152859500Y-53233713D01*
X152846244Y-53150016D01*
X152826246Y-53023756D01*
X152799076Y-52940137D01*
X152797081Y-52870296D01*
X152829324Y-52814139D01*
X156020204Y-49623259D01*
X156081525Y-49589776D01*
X156151217Y-49594760D01*
G37*
%TD.AperFunction*%
%TA.AperFunction,Conductor*%
G36*
X159546619Y-59842081D02*
G01*
X159613498Y-59957920D01*
X159708080Y-60052502D01*
X159823919Y-60119381D01*
X159884057Y-60135494D01*
X159321810Y-60697740D01*
X159386589Y-60743098D01*
X159515781Y-60803342D01*
X159568220Y-60849514D01*
X159587372Y-60916708D01*
X159567156Y-60983589D01*
X159515781Y-61028106D01*
X159386340Y-61088465D01*
X159386338Y-61088466D01*
X159205377Y-61215175D01*
X159049175Y-61371377D01*
X158922466Y-61552338D01*
X158922465Y-61552340D01*
X158862382Y-61681189D01*
X158816209Y-61733628D01*
X158749016Y-61752780D01*
X158682135Y-61732564D01*
X158637618Y-61681189D01*
X158611934Y-61626110D01*
X158577534Y-61552339D01*
X158489019Y-61425925D01*
X158450827Y-61371381D01*
X158386721Y-61307275D01*
X158294620Y-61215174D01*
X158294616Y-61215171D01*
X158294615Y-61215170D01*
X158113666Y-61088468D01*
X158113658Y-61088464D01*
X157984811Y-61028382D01*
X157932371Y-60982210D01*
X157913219Y-60915017D01*
X157933435Y-60848135D01*
X157984811Y-60803618D01*
X158012979Y-60790483D01*
X158113662Y-60743534D01*
X158294620Y-60616826D01*
X158450826Y-60460620D01*
X158577534Y-60279662D01*
X158637894Y-60150218D01*
X158684066Y-60097779D01*
X158751259Y-60078627D01*
X158818141Y-60098843D01*
X158862658Y-60150219D01*
X158922898Y-60279405D01*
X158922901Y-60279411D01*
X158968258Y-60344187D01*
X158968258Y-60344188D01*
X159530504Y-59781941D01*
X159546619Y-59842081D01*
G37*
%TD.AperFunction*%
%TA.AperFunction,Conductor*%
G36*
X148244657Y-59440185D02*
G01*
X148290412Y-59492989D01*
X148300356Y-59562147D01*
X148271331Y-59625703D01*
X148212553Y-59663477D01*
X148209711Y-59664275D01*
X148126516Y-59686566D01*
X148126507Y-59686570D01*
X147912423Y-59786399D01*
X147912421Y-59786400D01*
X147828627Y-59845073D01*
X147828626Y-59845073D01*
X148460591Y-60477037D01*
X148397007Y-60494075D01*
X148282993Y-60559901D01*
X148189901Y-60652993D01*
X148124075Y-60767007D01*
X148107037Y-60830590D01*
X147475073Y-60198626D01*
X147475072Y-60198627D01*
X147421880Y-60274595D01*
X147367303Y-60318220D01*
X147297805Y-60325414D01*
X147235450Y-60293891D01*
X147218730Y-60274595D01*
X147088494Y-60088597D01*
X146921402Y-59921506D01*
X146921395Y-59921501D01*
X146727834Y-59785967D01*
X146727830Y-59785965D01*
X146678174Y-59762810D01*
X146513663Y-59686097D01*
X146513659Y-59686096D01*
X146513655Y-59686094D01*
X146432222Y-59664275D01*
X146372561Y-59627910D01*
X146342032Y-59565063D01*
X146350326Y-59495688D01*
X146394812Y-59441810D01*
X146461364Y-59420535D01*
X146464315Y-59420500D01*
X148177618Y-59420500D01*
X148244657Y-59440185D01*
G37*
%TD.AperFunction*%
%TA.AperFunction,Conductor*%
G36*
X158817865Y-57559435D02*
G01*
X158862382Y-57610811D01*
X158922464Y-57739658D01*
X158922468Y-57739666D01*
X159049170Y-57920615D01*
X159049175Y-57920621D01*
X159205378Y-58076824D01*
X159205384Y-58076829D01*
X159386333Y-58203531D01*
X159386335Y-58203532D01*
X159386338Y-58203534D01*
X159515189Y-58263618D01*
X159515781Y-58263894D01*
X159568220Y-58310066D01*
X159587372Y-58377260D01*
X159567156Y-58444141D01*
X159515781Y-58488658D01*
X159386590Y-58548901D01*
X159321811Y-58594258D01*
X159884058Y-59156504D01*
X159823919Y-59172619D01*
X159708080Y-59239498D01*
X159613498Y-59334080D01*
X159546619Y-59449919D01*
X159530504Y-59510057D01*
X158968258Y-58947811D01*
X158922901Y-59012590D01*
X158862658Y-59141781D01*
X158816485Y-59194220D01*
X158749292Y-59213372D01*
X158682411Y-59193156D01*
X158637894Y-59141781D01*
X158598724Y-59057781D01*
X158577534Y-59012339D01*
X158487464Y-58883705D01*
X158450827Y-58831381D01*
X158436203Y-58816757D01*
X158294620Y-58675174D01*
X158294616Y-58675171D01*
X158294615Y-58675170D01*
X158113666Y-58548468D01*
X158113658Y-58548464D01*
X157984811Y-58488382D01*
X157932371Y-58442210D01*
X157913219Y-58375017D01*
X157933435Y-58308135D01*
X157984811Y-58263618D01*
X157990802Y-58260824D01*
X158113662Y-58203534D01*
X158294620Y-58076826D01*
X158450826Y-57920620D01*
X158577534Y-57739662D01*
X158637618Y-57610811D01*
X158683790Y-57558371D01*
X158750983Y-57539219D01*
X158817865Y-57559435D01*
G37*
%TD.AperFunction*%
%TA.AperFunction,Conductor*%
G36*
X159546619Y-52222081D02*
G01*
X159613498Y-52337920D01*
X159708080Y-52432502D01*
X159823919Y-52499381D01*
X159884057Y-52515494D01*
X159321810Y-53077740D01*
X159386589Y-53123098D01*
X159515781Y-53183342D01*
X159568220Y-53229514D01*
X159587372Y-53296708D01*
X159567156Y-53363589D01*
X159515781Y-53408106D01*
X159386340Y-53468465D01*
X159386338Y-53468466D01*
X159205377Y-53595175D01*
X159049175Y-53751377D01*
X158922466Y-53932338D01*
X158922465Y-53932340D01*
X158862382Y-54061189D01*
X158816209Y-54113628D01*
X158749016Y-54132780D01*
X158682135Y-54112564D01*
X158637618Y-54061189D01*
X158619059Y-54021390D01*
X158577534Y-53932339D01*
X158450826Y-53751380D01*
X158450824Y-53751377D01*
X158401325Y-53701878D01*
X158367840Y-53640555D01*
X158372824Y-53570863D01*
X158401325Y-53526516D01*
X158416109Y-53511733D01*
X158416110Y-53511731D01*
X158423170Y-53504671D01*
X158423176Y-53504664D01*
X159148729Y-52779111D01*
X159148733Y-52779109D01*
X159235858Y-52691984D01*
X159275814Y-52632186D01*
X159275815Y-52632185D01*
X159304309Y-52589542D01*
X159304309Y-52589540D01*
X159304312Y-52589537D01*
X159337652Y-52509043D01*
X159351463Y-52475703D01*
X159375500Y-52354857D01*
X159375500Y-52354854D01*
X159376688Y-52348882D01*
X159378416Y-52349225D01*
X159401450Y-52292175D01*
X159411015Y-52281430D01*
X159530504Y-52161940D01*
X159546619Y-52222081D01*
G37*
%TD.AperFunction*%
%TD*%
M02*
